<?xml version="1.0" encoding="UTF-8" standalone="no"?>
<!DOCTYPE svg PUBLIC "-//W3C//DTD SVG 1.1//EN"
 "http://www.w3.org/Graphics/SVG/1.1/DTD/svg11.dtd">
<!-- Generated by graphviz version 13.1.2 (20250808.2320)
 -->
<!-- Title: BaseBlock.hpp Pages: 1 -->
<svg width="106pt" height="193pt"
 viewBox="0.00 0.00 106.00 193.00" xmlns="http://www.w3.org/2000/svg" xmlns:xlink="http://www.w3.org/1999/xlink">

<svg id="main" version="1.1" xmlns="http://www.w3.org/2000/svg" xmlns:xlink="http://www.w3.org/1999/xlink" xml:space="preserve">

<style type="text/css"><![CDATA[
.node, .edge {opacity: 0.7;}
.node.selected, .edge.selected {opacity: 1;}
.edge:hover path { stroke: red; }
.edge:hover polygon { stroke: red; fill: red; }
]]></style>
<script type="application/ecmascript" xlink:href="svg.min.js"/>
<svg id="graph" class="graph">
<g id="graph0" class="graph" transform="scale(1 1) rotate(0) translate(4 189)">
<title>BaseBlock.hpp</title>
<!-- Node1 -->
<g id="Node000001" class="node">
<title>Node1</title>
<g id="a_Node000001"><a xlink:title=" ">
<polygon fill="#999999" stroke="#666666" points="98.38,-185 16.38,-185 16.38,-165.75 98.38,-165.75 98.38,-185"/>
<text xml:space="preserve" text-anchor="middle" x="57.38" y="-171.5" font-family="Helvetica,sans-Serif" font-size="10.00">BaseBlock.hpp</text>
</a>
</g>
</g>
<!-- Node2 -->
<g id="Node000002" class="node">
<title>Node2</title>
<g id="a_Node000002"><a xlink:href="_blocks_8hpp.html" target="_top" xlink:title=" ">
<polygon fill="white" stroke="#666666" points="89.75,-129.75 25,-129.75 25,-110.5 89.75,-110.5 89.75,-129.75"/>
<text xml:space="preserve" text-anchor="middle" x="57.38" y="-116.25" font-family="Helvetica,sans-Serif" font-size="10.00">Blocks.hpp</text>
</a>
</g>
</g>
<!-- Node1&#45;&gt;Node2 -->
<g id="edge1_Node000001_Node000002" class="edge">
<title>Node1&#45;&gt;Node2</title>
<g id="a_edge1_Node000001_Node000002"><a xlink:title=" ">
<path fill="none" stroke="#63b8ff" d="M57.38,-154.13C57.38,-145.84 57.38,-136.67 57.38,-130.11"/>
<polygon fill="#63b8ff" stroke="#63b8ff" points="53.88,-154.07 57.38,-164.07 60.88,-154.07 53.88,-154.07"/>
</a>
</g>
</g>
<!-- Node3 -->
<g id="Node000003" class="node">
<title>Node3</title>
<g id="a_Node000003"><a xlink:href="_proxy_8hpp.html" target="_top" xlink:title=" ">
<polygon fill="white" stroke="#666666" points="58.75,-74.5 0,-74.5 0,-55.25 58.75,-55.25 58.75,-74.5"/>
<text xml:space="preserve" text-anchor="middle" x="29.38" y="-61" font-family="Helvetica,sans-Serif" font-size="10.00">Proxy.hpp</text>
</a>
</g>
</g>
<!-- Node2&#45;&gt;Node3 -->
<g id="edge2_Node000002_Node000003" class="edge">
<title>Node2&#45;&gt;Node3</title>
<g id="a_edge2_Node000002_Node000003"><a xlink:title=" ">
<path fill="none" stroke="#63b8ff" d="M47.49,-100.33C42.94,-91.67 37.75,-81.81 34.1,-74.86"/>
<polygon fill="#63b8ff" stroke="#63b8ff" points="44.3,-101.77 52.05,-108.99 50.49,-98.51 44.3,-101.77"/>
</a>
</g>
</g>
<!-- Node4 -->
<g id="Node000004" class="node">
<title>Node4</title>
<g id="a_Node000004"><a xlink:href="main_8cpp.html" target="_top" xlink:title=" ">
<polygon fill="white" stroke="#666666" points="85.25,-19.25 29.5,-19.25 29.5,0 85.25,0 85.25,-19.25"/>
<text xml:space="preserve" text-anchor="middle" x="57.38" y="-5.75" font-family="Helvetica,sans-Serif" font-size="10.00">main.cpp</text>
</a>
</g>
</g>
<!-- Node2&#45;&gt;Node4 -->
<g id="edge4_Node000002_Node000004" class="edge">
<title>Node2&#45;&gt;Node4</title>
<g id="a_edge4_Node000002_Node000004"><a xlink:title=" ">
<path fill="none" stroke="#63b8ff" d="M63.29,-99.05C66.3,-86.5 69,-69.98 67.38,-55.25 65.98,-42.62 62.42,-28.35 59.95,-19.42"/>
<polygon fill="#63b8ff" stroke="#63b8ff" points="59.94,-98.04 60.72,-108.6 66.7,-99.85 59.94,-98.04"/>
</a>
</g>
</g>
<!-- Node3&#45;&gt;Node4 -->
<g id="edge3_Node000003_Node000004" class="edge">
<title>Node3&#45;&gt;Node4</title>
<g id="a_edge3_Node000003_Node000004"><a xlink:title=" ">
<path fill="none" stroke="#63b8ff" d="M39.26,-45.08C43.81,-36.42 49,-26.56 52.65,-19.61"/>
<polygon fill="#63b8ff" stroke="#63b8ff" points="36.26,-43.26 34.7,-53.74 42.45,-46.52 36.26,-43.26"/>
</a>
</g>
</g>
</g>
</svg>
</svg>

<style type='text/css'>
<![CDATA[
[data-mouse-over-selected='false'] { opacity: 0.7; }
[data-mouse-over-selected='true']  { opacity: 1.0; }
]]>
</style>
<script type="application/ecmascript"><![CDATA[
document.addEventListener('DOMContentLoaded', (event) => {
  highlightEdges();
  highlightAdjacentNodes();
});
]]></script>
</svg>
