<?xml version="1.0" encoding="UTF-8" standalone="no"?>
<!DOCTYPE svg PUBLIC "-//W3C//DTD SVG 1.1//EN"
 "http://www.w3.org/Graphics/SVG/1.1/DTD/svg11.dtd">
<!-- Generated by graphviz version 13.1.2 (20250808.2320)
 -->
<!-- Title: Blocks.hpp Pages: 1 -->
<svg width="250pt" height="193pt"
 viewBox="0.00 0.00 250.00 193.00" xmlns="http://www.w3.org/2000/svg" xmlns:xlink="http://www.w3.org/1999/xlink">

<svg id="main" version="1.1" xmlns="http://www.w3.org/2000/svg" xmlns:xlink="http://www.w3.org/1999/xlink" xml:space="preserve">

<style type="text/css"><![CDATA[
.node, .edge {opacity: 0.7;}
.node.selected, .edge.selected {opacity: 1;}
.edge:hover path { stroke: red; }
.edge:hover polygon { stroke: red; fill: red; }
]]></style>
<script type="application/ecmascript" xlink:href="svg.min.js"/>
<svg id="graph" class="graph">
<g id="graph0" class="graph" transform="scale(1 1) rotate(0) translate(4 189)">
<title>Blocks.hpp</title>
<!-- Node1 -->
<g id="Node000001" class="node">
<title>Node1</title>
<g id="a_Node000001"><a xlink:title=" ">
<polygon fill="#999999" stroke="#666666" points="89.38,-185 24.62,-185 24.62,-165.75 89.38,-165.75 89.38,-185"/>
<text xml:space="preserve" text-anchor="middle" x="57" y="-171.5" font-family="Helvetica,sans-Serif" font-size="10.00">Blocks.hpp</text>
</a>
</g>
</g>
<!-- Node2 -->
<g id="Node000002" class="node">
<title>Node2</title>
<g id="a_Node000002"><a xlink:href="_base_block_8hpp.html" target="_top" xlink:title=" ">
<polygon fill="white" stroke="#666666" points="98,-129.75 16,-129.75 16,-110.5 98,-110.5 98,-129.75"/>
<text xml:space="preserve" text-anchor="middle" x="57" y="-116.25" font-family="Helvetica,sans-Serif" font-size="10.00">BaseBlock.hpp</text>
</a>
</g>
</g>
<!-- Node1&#45;&gt;Node2 -->
<g id="edge1_Node000001_Node000002" class="edge">
<title>Node1&#45;&gt;Node2</title>
<g id="a_edge1_Node000001_Node000002"><a xlink:title=" ">
<path fill="none" stroke="#63b8ff" d="M57,-165.58C57,-159.07 57,-149.92 57,-141.62"/>
<polygon fill="#63b8ff" stroke="#63b8ff" points="60.5,-141.62 57,-131.62 53.5,-141.62 60.5,-141.62"/>
</a>
</g>
</g>
<!-- Node3 -->
<g id="Node000003" class="node">
<title>Node3</title>
<g id="a_Node000003"><a xlink:href="_flow_element_8hpp.html" target="_top" xlink:title=" ">
<polygon fill="white" stroke="#666666" points="139.88,-74.5 48.12,-74.5 48.12,-55.25 139.88,-55.25 139.88,-74.5"/>
<text xml:space="preserve" text-anchor="middle" x="94" y="-61" font-family="Helvetica,sans-Serif" font-size="10.00">FlowElement.hpp</text>
</a>
</g>
</g>
<!-- Node2&#45;&gt;Node3 -->
<g id="edge2_Node000002_Node000003" class="edge">
<title>Node2&#45;&gt;Node3</title>
<g id="a_edge2_Node000002_Node000003"><a xlink:title=" ">
<path fill="none" stroke="#63b8ff" d="M63.11,-110.33C68.06,-103.21 75.2,-92.93 81.37,-84.05"/>
<polygon fill="#63b8ff" stroke="#63b8ff" points="84.06,-86.31 86.89,-76.1 78.31,-82.32 84.06,-86.31"/>
</a>
</g>
</g>
<!-- Node5 -->
<g id="Node000005" class="node">
<title>Node5</title>
<g id="a_Node000005"><a xlink:title=" ">
<polygon fill="#e0e0e0" stroke="#999999" points="40,-19.25 0,-19.25 0,0 40,0 40,-19.25"/>
<text xml:space="preserve" text-anchor="middle" x="20" y="-5.75" font-family="Helvetica,sans-Serif" font-size="10.00">string</text>
</a>
</g>
</g>
<!-- Node2&#45;&gt;Node5 -->
<g id="edge7_Node000002_Node000005" class="edge">
<title>Node2&#45;&gt;Node5</title>
<g id="a_edge7_Node000002_Node000005"><a xlink:title=" ">
<path fill="none" stroke="#63b8ff" d="M53.17,-110.33C49.34,-101.39 43.41,-87.12 39,-74.5 33.85,-59.77 28.85,-42.83 25.28,-30.09"/>
<polygon fill="#63b8ff" stroke="#63b8ff" points="28.76,-29.56 22.73,-20.85 22.01,-31.42 28.76,-29.56"/>
</a>
</g>
</g>
<!-- Node4 -->
<g id="Node000004" class="node">
<title>Node4</title>
<g id="a_Node000004"><a xlink:title=" ">
<polygon fill="#e0e0e0" stroke="#999999" points="109.62,-19.25 58.38,-19.25 58.38,0 109.62,0 109.62,-19.25"/>
<text xml:space="preserve" text-anchor="middle" x="84" y="-5.75" font-family="Helvetica,sans-Serif" font-size="10.00">memory</text>
</a>
</g>
</g>
<!-- Node3&#45;&gt;Node4 -->
<g id="edge3_Node000003_Node000004" class="edge">
<title>Node3&#45;&gt;Node4</title>
<g id="a_edge3_Node000003_Node000004"><a xlink:title=" ">
<path fill="none" stroke="#63b8ff" d="M92.35,-55.08C91.11,-48.49 89.37,-39.21 87.79,-30.82"/>
<polygon fill="#63b8ff" stroke="#63b8ff" points="91.25,-30.28 85.97,-21.1 84.37,-31.57 91.25,-30.28"/>
</a>
</g>
</g>
<!-- Node3&#45;&gt;Node5 -->
<g id="edge4_Node000003_Node000005" class="edge">
<title>Node3&#45;&gt;Node5</title>
<g id="a_edge4_Node000003_Node000005"><a xlink:title=" ">
<path fill="none" stroke="#63b8ff" d="M81.45,-54.84C70.54,-46.99 54.5,-35.45 41.54,-26.12"/>
<polygon fill="#63b8ff" stroke="#63b8ff" points="43.76,-23.41 33.6,-20.41 39.67,-29.09 43.76,-23.41"/>
</a>
</g>
</g>
<!-- Node6 -->
<g id="Node000006" class="node">
<title>Node6</title>
<g id="a_Node000006"><a xlink:title=" ">
<polygon fill="#e0e0e0" stroke="#999999" points="170.5,-19.25 127.5,-19.25 127.5,0 170.5,0 170.5,-19.25"/>
<text xml:space="preserve" text-anchor="middle" x="149" y="-5.75" font-family="Helvetica,sans-Serif" font-size="10.00">vector</text>
</a>
</g>
</g>
<!-- Node3&#45;&gt;Node6 -->
<g id="edge5_Node000003_Node000006" class="edge">
<title>Node3&#45;&gt;Node6</title>
<g id="a_edge5_Node000003_Node000006"><a xlink:title=" ">
<path fill="none" stroke="#63b8ff" d="M103.08,-55.08C110.84,-47.57 122.21,-36.56 131.7,-27.38"/>
<polygon fill="#63b8ff" stroke="#63b8ff" points="133.88,-30.13 138.63,-20.66 129.01,-25.1 133.88,-30.13"/>
</a>
</g>
</g>
<!-- Node7 -->
<g id="Node000007" class="node">
<title>Node7</title>
<g id="a_Node000007"><a xlink:title=" ">
<polygon fill="#e0e0e0" stroke="#999999" points="241.75,-19.25 188.25,-19.25 188.25,0 241.75,0 241.75,-19.25"/>
<text xml:space="preserve" text-anchor="middle" x="215" y="-5.75" font-family="Helvetica,sans-Serif" font-size="10.00">iostream</text>
</a>
</g>
</g>
<!-- Node3&#45;&gt;Node7 -->
<g id="edge6_Node000003_Node000007" class="edge">
<title>Node3&#45;&gt;Node7</title>
<g id="a_edge6_Node000003_Node000007"><a xlink:title=" ">
<path fill="none" stroke="#63b8ff" d="M114.53,-54.84C133.56,-46.47 162.15,-33.88 183.97,-24.28"/>
<polygon fill="#63b8ff" stroke="#63b8ff" points="185.24,-27.54 192.99,-20.31 182.43,-21.14 185.24,-27.54"/>
</a>
</g>
</g>
</g>
</svg>
</svg>

<style type='text/css'>
<![CDATA[
[data-mouse-over-selected='false'] { opacity: 0.7; }
[data-mouse-over-selected='true']  { opacity: 1.0; }
]]>
</style>
<script type="application/ecmascript"><![CDATA[
document.addEventListener('DOMContentLoaded', (event) => {
  highlightEdges();
  highlightAdjacentNodes();
});
]]></script>
</svg>
