<?xml version="1.0" encoding="UTF-8" standalone="no"?>
<!DOCTYPE svg PUBLIC "-//W3C//DTD SVG 1.1//EN"
 "http://www.w3.org/Graphics/SVG/1.1/DTD/svg11.dtd">
<!-- Generated by graphviz version 13.1.2 (20250808.2320)
 -->
<!-- Title: CompositeBlock.hpp Pages: 1 -->
<svg width="301pt" height="138pt"
 viewBox="0.00 0.00 301.00 138.00" xmlns="http://www.w3.org/2000/svg" xmlns:xlink="http://www.w3.org/1999/xlink">

<svg id="main" version="1.1" xmlns="http://www.w3.org/2000/svg" xmlns:xlink="http://www.w3.org/1999/xlink" xml:space="preserve">

<style type="text/css"><![CDATA[
.node, .edge {opacity: 0.7;}
.node.selected, .edge.selected {opacity: 1;}
.edge:hover path { stroke: red; }
.edge:hover polygon { stroke: red; fill: red; }
]]></style>
<script type="application/ecmascript" xlink:href="svg.min.js"/>
<svg id="graph" class="graph">
<g id="graph0" class="graph" transform="scale(1 1) rotate(0) translate(4 133.75)">
<title>CompositeBlock.hpp</title>
<!-- Node1 -->
<g id="Node000001" class="node">
<title>Node1</title>
<g id="a_Node000001"><a xlink:title=" ">
<polygon fill="#999999" stroke="#666666" points="243,-129.75 136.25,-129.75 136.25,-110.5 243,-110.5 243,-129.75"/>
<text xml:space="preserve" text-anchor="middle" x="189.62" y="-116.25" font-family="Helvetica,sans-Serif" font-size="10.00">CompositeBlock.hpp</text>
</a>
</g>
</g>
<!-- Node2 -->
<g id="Node000002" class="node">
<title>Node2</title>
<g id="a_Node000002"><a xlink:href="_flow_element_8hpp.html" target="_top" xlink:title=" ">
<polygon fill="white" stroke="#666666" points="142.5,-74.5 50.75,-74.5 50.75,-55.25 142.5,-55.25 142.5,-74.5"/>
<text xml:space="preserve" text-anchor="middle" x="96.62" y="-61" font-family="Helvetica,sans-Serif" font-size="10.00">FlowElement.hpp</text>
</a>
</g>
</g>
<!-- Node1&#45;&gt;Node2 -->
<g id="edge1_Node000001_Node000002" class="edge">
<title>Node1&#45;&gt;Node2</title>
<g id="a_edge1_Node000001_Node000002"><a xlink:title=" ">
<path fill="none" stroke="#63b8ff" d="M173.85,-110.09C159.69,-101.98 138.64,-89.93 122.1,-80.46"/>
<polygon fill="#63b8ff" stroke="#63b8ff" points="124.21,-77.64 113.79,-75.7 120.73,-83.71 124.21,-77.64"/>
</a>
</g>
</g>
<!-- Node5 -->
<g id="Node000005" class="node">
<title>Node5</title>
<g id="a_Node000005"><a xlink:title=" ">
<polygon fill="#e0e0e0" stroke="#999999" points="171.12,-19.25 128.12,-19.25 128.12,0 171.12,0 171.12,-19.25"/>
<text xml:space="preserve" text-anchor="middle" x="149.62" y="-5.75" font-family="Helvetica,sans-Serif" font-size="10.00">vector</text>
</a>
</g>
</g>
<!-- Node1&#45;&gt;Node5 -->
<g id="edge7_Node000001_Node000005" class="edge">
<title>Node1&#45;&gt;Node5</title>
<g id="a_edge7_Node000001_Node000005"><a xlink:title=" ">
<path fill="none" stroke="#63b8ff" d="M186.35,-110.25C179.93,-92.84 165.57,-53.87 156.83,-30.16"/>
<polygon fill="#63b8ff" stroke="#63b8ff" points="160.21,-29.22 153.47,-21.05 153.64,-31.64 160.21,-29.22"/>
</a>
</g>
</g>
<!-- Node6 -->
<g id="Node000006" class="node">
<title>Node6</title>
<g id="a_Node000006"><a xlink:title=" ">
<polygon fill="#e0e0e0" stroke="#999999" points="242.38,-19.25 188.88,-19.25 188.88,0 242.38,0 242.38,-19.25"/>
<text xml:space="preserve" text-anchor="middle" x="215.62" y="-5.75" font-family="Helvetica,sans-Serif" font-size="10.00">iostream</text>
</a>
</g>
</g>
<!-- Node1&#45;&gt;Node6 -->
<g id="edge8_Node000001_Node000006" class="edge">
<title>Node1&#45;&gt;Node6</title>
<g id="a_edge8_Node000001_Node000006"><a xlink:title=" ">
<path fill="none" stroke="#63b8ff" d="M191.75,-110.25C195.89,-93 205.09,-54.58 210.79,-30.81"/>
<polygon fill="#63b8ff" stroke="#63b8ff" points="214.19,-31.64 213.12,-21.1 207.38,-30.01 214.19,-31.64"/>
</a>
</g>
</g>
<!-- Node7 -->
<g id="Node000007" class="node">
<title>Node7</title>
<g id="a_Node000007"><a xlink:title=" ">
<polygon fill="#e0e0e0" stroke="#999999" points="292.5,-74.5 236.75,-74.5 236.75,-55.25 292.5,-55.25 292.5,-74.5"/>
<text xml:space="preserve" text-anchor="middle" x="264.62" y="-61" font-family="Helvetica,sans-Serif" font-size="10.00">algorithm</text>
</a>
</g>
</g>
<!-- Node1&#45;&gt;Node7 -->
<g id="edge6_Node000001_Node000007" class="edge">
<title>Node1&#45;&gt;Node7</title>
<g id="a_edge6_Node000001_Node000007"><a xlink:title=" ">
<path fill="none" stroke="#63b8ff" d="M202.35,-110.09C213.34,-102.29 229.47,-90.84 242.56,-81.54"/>
<polygon fill="#63b8ff" stroke="#63b8ff" points="244.48,-84.47 250.61,-75.83 240.43,-78.76 244.48,-84.47"/>
</a>
</g>
</g>
<!-- Node3 -->
<g id="Node000003" class="node">
<title>Node3</title>
<g id="a_Node000003"><a xlink:title=" ">
<polygon fill="#e0e0e0" stroke="#999999" points="51.25,-19.25 0,-19.25 0,0 51.25,0 51.25,-19.25"/>
<text xml:space="preserve" text-anchor="middle" x="25.62" y="-5.75" font-family="Helvetica,sans-Serif" font-size="10.00">memory</text>
</a>
</g>
</g>
<!-- Node2&#45;&gt;Node3 -->
<g id="edge2_Node000002_Node000003" class="edge">
<title>Node2&#45;&gt;Node3</title>
<g id="a_edge2_Node000002_Node000003"><a xlink:title=" ">
<path fill="none" stroke="#63b8ff" d="M84.58,-54.84C74.22,-47.07 59.02,-35.67 46.66,-26.4"/>
<polygon fill="#63b8ff" stroke="#63b8ff" points="48.8,-23.63 38.7,-20.43 44.6,-29.23 48.8,-23.63"/>
</a>
</g>
</g>
<!-- Node4 -->
<g id="Node000004" class="node">
<title>Node4</title>
<g id="a_Node000004"><a xlink:title=" ">
<polygon fill="#e0e0e0" stroke="#999999" points="109.62,-19.25 69.62,-19.25 69.62,0 109.62,0 109.62,-19.25"/>
<text xml:space="preserve" text-anchor="middle" x="89.62" y="-5.75" font-family="Helvetica,sans-Serif" font-size="10.00">string</text>
</a>
</g>
</g>
<!-- Node2&#45;&gt;Node4 -->
<g id="edge3_Node000002_Node000004" class="edge">
<title>Node2&#45;&gt;Node4</title>
<g id="a_edge3_Node000002_Node000004"><a xlink:title=" ">
<path fill="none" stroke="#63b8ff" d="M95.47,-55.08C94.6,-48.49 93.38,-39.21 92.28,-30.82"/>
<polygon fill="#63b8ff" stroke="#63b8ff" points="95.78,-30.57 91,-21.11 88.84,-31.48 95.78,-30.57"/>
</a>
</g>
</g>
<!-- Node2&#45;&gt;Node5 -->
<g id="edge4_Node000002_Node000005" class="edge">
<title>Node2&#45;&gt;Node5</title>
<g id="a_edge4_Node000002_Node000005"><a xlink:title=" ">
<path fill="none" stroke="#63b8ff" d="M105.38,-55.08C112.77,-47.65 123.59,-36.79 132.67,-27.66"/>
<polygon fill="#63b8ff" stroke="#63b8ff" points="135.04,-30.24 139.62,-20.68 130.08,-25.3 135.04,-30.24"/>
</a>
</g>
</g>
<!-- Node2&#45;&gt;Node6 -->
<g id="edge5_Node000002_Node000006" class="edge">
<title>Node2&#45;&gt;Node6</title>
<g id="a_edge5_Node000002_Node000006"><a xlink:title=" ">
<path fill="none" stroke="#63b8ff" d="M116.81,-54.84C135.53,-46.47 163.65,-33.88 185.11,-24.28"/>
<polygon fill="#63b8ff" stroke="#63b8ff" points="186.26,-27.6 193.96,-20.32 183.4,-21.21 186.26,-27.6"/>
</a>
</g>
</g>
</g>
</svg>
</svg>

<style type='text/css'>
<![CDATA[
[data-mouse-over-selected='false'] { opacity: 0.7; }
[data-mouse-over-selected='true']  { opacity: 1.0; }
]]>
</style>
<script type="application/ecmascript"><![CDATA[
document.addEventListener('DOMContentLoaded', (event) => {
  highlightEdges();
  highlightAdjacentNodes();
});
]]></script>
</svg>
