<?xml version="1.0" encoding="UTF-8" standalone="no"?>
<!DOCTYPE svg PUBLIC "-//W3C//DTD SVG 1.1//EN"
 "http://www.w3.org/Graphics/SVG/1.1/DTD/svg11.dtd">
<!-- Generated by graphviz version 13.1.2 (20250808.2320)
 -->
<!-- Title: FlowChart.hpp Pages: 1 -->
<svg width="323pt" height="138pt"
 viewBox="0.00 0.00 323.00 138.00" xmlns="http://www.w3.org/2000/svg" xmlns:xlink="http://www.w3.org/1999/xlink">
<g id="graph0" class="graph" transform="scale(1 1) rotate(0) translate(4 133.75)">
<title>FlowChart.hpp</title>
<!-- Node1 -->
<g id="Node000001" class="node">
<title>Node1</title>
<g id="a_Node000001"><a xlink:title=" ">
<polygon fill="#999999" stroke="#666666" points="207.5,-129.75 127.75,-129.75 127.75,-110.5 207.5,-110.5 207.5,-129.75"/>
<text xml:space="preserve" text-anchor="middle" x="167.62" y="-116.25" font-family="Helvetica,sans-Serif" font-size="10.00">FlowChart.hpp</text>
</a>
</g>
</g>
<!-- Node2 -->
<g id="Node000002" class="node">
<title>Node2</title>
<g id="a_Node000002"><a xlink:href="_flow_element_8hpp.html" target="_top" xlink:title=" ">
<polygon fill="white" stroke="#666666" points="176.5,-74.5 84.75,-74.5 84.75,-55.25 176.5,-55.25 176.5,-74.5"/>
<text xml:space="preserve" text-anchor="middle" x="130.62" y="-61" font-family="Helvetica,sans-Serif" font-size="10.00">FlowElement.hpp</text>
</a>
</g>
</g>
<!-- Node1&#45;&gt;Node2 -->
<g id="edge1_Node000001_Node000002" class="edge">
<title>Node1&#45;&gt;Node2</title>
<g id="a_edge1_Node000001_Node000002"><a xlink:title=" ">
<path fill="none" stroke="#63b8ff" d="M161.52,-110.33C156.56,-103.21 149.42,-92.93 143.25,-84.05"/>
<polygon fill="#63b8ff" stroke="#63b8ff" points="146.31,-82.32 137.73,-76.1 140.56,-86.31 146.31,-82.32"/>
</a>
</g>
</g>
<!-- Node3 -->
<g id="Node000003" class="node">
<title>Node3</title>
<g id="a_Node000003"><a xlink:title=" ">
<polygon fill="#e0e0e0" stroke="#999999" points="51.25,-19.25 0,-19.25 0,0 51.25,0 51.25,-19.25"/>
<text xml:space="preserve" text-anchor="middle" x="25.62" y="-5.75" font-family="Helvetica,sans-Serif" font-size="10.00">memory</text>
</a>
</g>
</g>
<!-- Node1&#45;&gt;Node3 -->
<g id="edge7_Node000001_Node000003" class="edge">
<title>Node1&#45;&gt;Node3</title>
<g id="a_edge7_Node000001_Node000003"><a xlink:title=" ">
<path fill="none" stroke="#63b8ff" d="M141.22,-110.04C121.77,-102.5 95.38,-90.45 75.62,-74.5 59.73,-61.67 45.8,-42.88 36.71,-28.99"/>
<polygon fill="#63b8ff" stroke="#63b8ff" points="39.84,-27.4 31.55,-20.8 33.91,-31.12 39.84,-27.4"/>
</a>
</g>
</g>
<!-- Node6 -->
<g id="Node000006" class="node">
<title>Node6</title>
<g id="a_Node000006"><a xlink:title=" ">
<polygon fill="#e0e0e0" stroke="#999999" points="242.38,-19.25 188.88,-19.25 188.88,0 242.38,0 242.38,-19.25"/>
<text xml:space="preserve" text-anchor="middle" x="215.62" y="-5.75" font-family="Helvetica,sans-Serif" font-size="10.00">iostream</text>
</a>
</g>
</g>
<!-- Node1&#45;&gt;Node6 -->
<g id="edge8_Node000001_Node000006" class="edge">
<title>Node1&#45;&gt;Node6</title>
<g id="a_edge8_Node000001_Node000006"><a xlink:title=" ">
<path fill="none" stroke="#63b8ff" d="M171.55,-110.25C179.29,-92.76 196.65,-53.52 207.13,-29.84"/>
<polygon fill="#63b8ff" stroke="#63b8ff" points="210.19,-31.57 211.03,-21.01 203.78,-28.74 210.19,-31.57"/>
</a>
</g>
</g>
<!-- Node7 -->
<g id="Node000007" class="node">
<title>Node7</title>
<g id="a_Node000007"><a xlink:title=" ">
<polygon fill="#e0e0e0" stroke="#999999" points="315,-74.5 232.25,-74.5 232.25,-55.25 315,-55.25 315,-74.5"/>
<text xml:space="preserve" text-anchor="middle" x="273.62" y="-61" font-family="Helvetica,sans-Serif" font-size="10.00">unordered_map</text>
</a>
</g>
</g>
<!-- Node1&#45;&gt;Node7 -->
<g id="edge6_Node000001_Node000007" class="edge">
<title>Node1&#45;&gt;Node7</title>
<g id="a_edge6_Node000001_Node000007"><a xlink:title=" ">
<path fill="none" stroke="#63b8ff" d="M185.61,-110.09C201.98,-101.87 226.41,-89.59 245.39,-80.06"/>
<polygon fill="#63b8ff" stroke="#63b8ff" points="246.84,-83.25 254.2,-75.63 243.7,-76.99 246.84,-83.25"/>
</a>
</g>
</g>
<!-- Node2&#45;&gt;Node3 -->
<g id="edge2_Node000002_Node000003" class="edge">
<title>Node2&#45;&gt;Node3</title>
<g id="a_edge2_Node000002_Node000003"><a xlink:title=" ">
<path fill="none" stroke="#63b8ff" d="M112.81,-54.84C96.6,-46.62 72.39,-34.34 53.59,-24.81"/>
<polygon fill="#63b8ff" stroke="#63b8ff" points="55.38,-21.79 44.87,-20.39 52.21,-28.03 55.38,-21.79"/>
</a>
</g>
</g>
<!-- Node4 -->
<g id="Node000004" class="node">
<title>Node4</title>
<g id="a_Node000004"><a xlink:title=" ">
<polygon fill="#e0e0e0" stroke="#999999" points="109.62,-19.25 69.62,-19.25 69.62,0 109.62,0 109.62,-19.25"/>
<text xml:space="preserve" text-anchor="middle" x="89.62" y="-5.75" font-family="Helvetica,sans-Serif" font-size="10.00">string</text>
</a>
</g>
</g>
<!-- Node2&#45;&gt;Node4 -->
<g id="edge3_Node000002_Node000004" class="edge">
<title>Node2&#45;&gt;Node4</title>
<g id="a_edge3_Node000002_Node000004"><a xlink:title=" ">
<path fill="none" stroke="#63b8ff" d="M123.85,-55.08C118.31,-47.88 110.28,-37.46 103.4,-28.51"/>
<polygon fill="#63b8ff" stroke="#63b8ff" points="106.34,-26.6 97.47,-20.81 100.79,-30.87 106.34,-26.6"/>
</a>
</g>
</g>
<!-- Node5 -->
<g id="Node000005" class="node">
<title>Node5</title>
<g id="a_Node000005"><a xlink:title=" ">
<polygon fill="#e0e0e0" stroke="#999999" points="171.12,-19.25 128.12,-19.25 128.12,0 171.12,0 171.12,-19.25"/>
<text xml:space="preserve" text-anchor="middle" x="149.62" y="-5.75" font-family="Helvetica,sans-Serif" font-size="10.00">vector</text>
</a>
</g>
</g>
<!-- Node2&#45;&gt;Node5 -->
<g id="edge4_Node000002_Node000005" class="edge">
<title>Node2&#45;&gt;Node5</title>
<g id="a_edge4_Node000002_Node000005"><a xlink:title=" ">
<path fill="none" stroke="#63b8ff" d="M133.76,-55.08C136.17,-48.34 139.58,-38.77 142.63,-30.24"/>
<polygon fill="#63b8ff" stroke="#63b8ff" points="145.85,-31.63 145.91,-21.03 139.25,-29.28 145.85,-31.63"/>
</a>
</g>
</g>
<!-- Node2&#45;&gt;Node6 -->
<g id="edge5_Node000002_Node000006" class="edge">
<title>Node2&#45;&gt;Node6</title>
<g id="a_edge5_Node000002_Node000006"><a xlink:title=" ">
<path fill="none" stroke="#63b8ff" d="M145.04,-54.84C157.74,-46.89 176.5,-35.14 191.48,-25.75"/>
<polygon fill="#63b8ff" stroke="#63b8ff" points="193.24,-28.78 199.85,-20.51 189.52,-22.85 193.24,-28.78"/>
</a>
</g>
</g>
</g>
</svg>
