<?xml version="1.0" encoding="UTF-8" standalone="no"?>
<!DOCTYPE svg PUBLIC "-//W3C//DTD SVG 1.1//EN"
 "http://www.w3.org/Graphics/SVG/1.1/DTD/svg11.dtd">
<!-- Generated by graphviz version 13.1.2 (20250808.2320)
 -->
<!-- Title: FlowElement.hpp Pages: 1 -->
<svg width="342pt" height="248pt"
 viewBox="0.00 0.00 342.00 248.00" xmlns="http://www.w3.org/2000/svg" xmlns:xlink="http://www.w3.org/1999/xlink">

<svg id="main" version="1.1" xmlns="http://www.w3.org/2000/svg" xmlns:xlink="http://www.w3.org/1999/xlink" xml:space="preserve">

<style type="text/css"><![CDATA[
.node, .edge {opacity: 0.7;}
.node.selected, .edge.selected {opacity: 1;}
.edge:hover path { stroke: red; }
.edge:hover polygon { stroke: red; fill: red; }
]]></style>
<script type="application/ecmascript" xlink:href="svg.min.js"/>
<svg id="graph" class="graph">
<g id="graph0" class="graph" transform="scale(1 1) rotate(0) translate(4 244.25)">
<title>FlowElement.hpp</title>
<!-- Node1 -->
<g id="Node000001" class="node">
<title>Node1</title>
<g id="a_Node000001"><a xlink:title=" ">
<polygon fill="#999999" stroke="#666666" points="193.88,-240.25 102.12,-240.25 102.12,-221 193.88,-221 193.88,-240.25"/>
<text xml:space="preserve" text-anchor="middle" x="148" y="-226.75" font-family="Helvetica,sans-Serif" font-size="10.00">FlowElement.hpp</text>
</a>
</g>
</g>
<!-- Node2 -->
<g id="Node000002" class="node">
<title>Node2</title>
<g id="a_Node000002"><a xlink:href="_base_block_8hpp.html" target="_top" xlink:title=" ">
<polygon fill="white" stroke="#666666" points="82,-185 0,-185 0,-165.75 82,-165.75 82,-185"/>
<text xml:space="preserve" text-anchor="middle" x="41" y="-171.5" font-family="Helvetica,sans-Serif" font-size="10.00">BaseBlock.hpp</text>
</a>
</g>
</g>
<!-- Node1&#45;&gt;Node2 -->
<g id="edge1_Node000001_Node000002" class="edge">
<title>Node1&#45;&gt;Node2</title>
<g id="a_edge1_Node000001_Node000002"><a xlink:title=" ">
<path fill="none" stroke="#63b8ff" d="M119.6,-215.49C100.47,-205.97 75.79,-193.69 59.24,-185.45"/>
<polygon fill="#63b8ff" stroke="#63b8ff" points="117.98,-218.6 128.49,-219.92 121.1,-212.33 117.98,-218.6"/>
</a>
</g>
</g>
<!-- Node4 -->
<g id="Node000004" class="node">
<title>Node4</title>
<g id="a_Node000004"><a xlink:href="_proxy_8hpp.html" target="_top" xlink:title=" ">
<polygon fill="white" stroke="#666666" points="73.38,-74.5 14.62,-74.5 14.62,-55.25 73.38,-55.25 73.38,-74.5"/>
<text xml:space="preserve" text-anchor="middle" x="44" y="-61" font-family="Helvetica,sans-Serif" font-size="10.00">Proxy.hpp</text>
</a>
</g>
</g>
<!-- Node1&#45;&gt;Node4 -->
<g id="edge12_Node000001_Node000004" class="edge">
<title>Node1&#45;&gt;Node4</title>
<g id="a_edge12_Node000001_Node000004"><a xlink:title=" ">
<path fill="none" stroke="#63b8ff" d="M138.8,-210.31C126.96,-186.15 105.14,-143.91 82,-110.5 72.85,-97.28 60.52,-83.38 52.42,-74.68"/>
<polygon fill="#63b8ff" stroke="#63b8ff" points="135.61,-211.76 143.11,-219.24 141.91,-208.71 135.61,-211.76"/>
</a>
</g>
</g>
<!-- Node6 -->
<g id="Node000006" class="node">
<title>Node6</title>
<g id="a_Node000006"><a xlink:href="_composite_block_8hpp.html" target="_top" xlink:title=" ">
<polygon fill="white" stroke="#666666" points="198.38,-74.5 91.62,-74.5 91.62,-55.25 198.38,-55.25 198.38,-74.5"/>
<text xml:space="preserve" text-anchor="middle" x="145" y="-61" font-family="Helvetica,sans-Serif" font-size="10.00">CompositeBlock.hpp</text>
</a>
</g>
</g>
<!-- Node1&#45;&gt;Node6 -->
<g id="edge6_Node000001_Node000006" class="edge">
<title>Node1&#45;&gt;Node6</title>
<g id="a_edge6_Node000001_Node000006"><a xlink:title=" ">
<path fill="none" stroke="#63b8ff" d="M147.63,-209.47C146.97,-173.61 145.63,-100.1 145.16,-74.72"/>
<polygon fill="#63b8ff" stroke="#63b8ff" points="144.13,-209.37 147.81,-219.31 151.13,-209.25 144.13,-209.37"/>
</a>
</g>
</g>
<!-- Node7 -->
<g id="Node000007" class="node">
<title>Node7</title>
<g id="a_Node000007"><a xlink:href="_decorator_8hpp.html" target="_top" xlink:title=" ">
<polygon fill="white" stroke="#666666" points="258.38,-185 181.62,-185 181.62,-165.75 258.38,-165.75 258.38,-185"/>
<text xml:space="preserve" text-anchor="middle" x="220" y="-171.5" font-family="Helvetica,sans-Serif" font-size="10.00">Decorator.hpp</text>
</a>
</g>
</g>
<!-- Node1&#45;&gt;Node7 -->
<g id="edge8_Node000001_Node000007" class="edge">
<title>Node1&#45;&gt;Node7</title>
<g id="a_edge8_Node000001_Node000007"><a xlink:title=" ">
<path fill="none" stroke="#63b8ff" d="M169.17,-213.97C181.81,-204.62 197.41,-193.08 207.97,-185.27"/>
<polygon fill="#63b8ff" stroke="#63b8ff" points="167.39,-210.93 161.43,-219.69 171.55,-216.56 167.39,-210.93"/>
</a>
</g>
</g>
<!-- Node8 -->
<g id="Node000008" class="node">
<title>Node8</title>
<g id="a_Node000008"><a xlink:href="_flow_chart_8hpp.html" target="_top" xlink:title=" ">
<polygon fill="white" stroke="#666666" points="333.88,-129.75 254.12,-129.75 254.12,-110.5 333.88,-110.5 333.88,-129.75"/>
<text xml:space="preserve" text-anchor="middle" x="294" y="-116.25" font-family="Helvetica,sans-Serif" font-size="10.00">FlowChart.hpp</text>
</a>
</g>
</g>
<!-- Node1&#45;&gt;Node8 -->
<g id="edge10_Node000001_Node000008" class="edge">
<title>Node1&#45;&gt;Node8</title>
<g id="a_edge10_Node000001_Node000008"><a xlink:title=" ">
<path fill="none" stroke="#63b8ff" d="M205.3,-218.3C226.81,-211.63 250.12,-201.2 267,-185 282.81,-169.83 289.79,-143.94 292.5,-130.25"/>
<polygon fill="#63b8ff" stroke="#63b8ff" points="204.36,-214.93 195.71,-221.04 206.28,-221.66 204.36,-214.93"/>
</a>
</g>
</g>
<!-- Node3 -->
<g id="Node000003" class="node">
<title>Node3</title>
<g id="a_Node000003"><a xlink:href="_blocks_8hpp.html" target="_top" xlink:title=" ">
<polygon fill="white" stroke="#666666" points="73.38,-129.75 8.62,-129.75 8.62,-110.5 73.38,-110.5 73.38,-129.75"/>
<text xml:space="preserve" text-anchor="middle" x="41" y="-116.25" font-family="Helvetica,sans-Serif" font-size="10.00">Blocks.hpp</text>
</a>
</g>
</g>
<!-- Node2&#45;&gt;Node3 -->
<g id="edge2_Node000002_Node000003" class="edge">
<title>Node2&#45;&gt;Node3</title>
<g id="a_edge2_Node000002_Node000003"><a xlink:title=" ">
<path fill="none" stroke="#63b8ff" d="M41,-154.13C41,-145.84 41,-136.67 41,-130.11"/>
<polygon fill="#63b8ff" stroke="#63b8ff" points="37.5,-154.07 41,-164.07 44.5,-154.07 37.5,-154.07"/>
</a>
</g>
</g>
<!-- Node3&#45;&gt;Node4 -->
<g id="edge3_Node000003_Node000004" class="edge">
<title>Node3&#45;&gt;Node4</title>
<g id="a_edge3_Node000003_Node000004"><a xlink:title=" ">
<path fill="none" stroke="#63b8ff" d="M42.14,-98.88C42.61,-90.59 43.12,-81.42 43.49,-74.86"/>
<polygon fill="#63b8ff" stroke="#63b8ff" points="38.65,-98.64 41.58,-108.82 45.64,-99.03 38.65,-98.64"/>
</a>
</g>
</g>
<!-- Node5 -->
<g id="Node000005" class="node">
<title>Node5</title>
<g id="a_Node000005"><a xlink:href="main_8cpp.html" target="_top" xlink:title=" ">
<polygon fill="white" stroke="#666666" points="172.88,-19.25 117.12,-19.25 117.12,0 172.88,0 172.88,-19.25"/>
<text xml:space="preserve" text-anchor="middle" x="145" y="-5.75" font-family="Helvetica,sans-Serif" font-size="10.00">main.cpp</text>
</a>
</g>
</g>
<!-- Node3&#45;&gt;Node5 -->
<g id="edge5_Node000003_Node000005" class="edge">
<title>Node3&#45;&gt;Node5</title>
<g id="a_edge5_Node000003_Node000005"><a xlink:title=" ">
<path fill="none" stroke="#63b8ff" d="M21.15,-102.15C8.04,-88.85 -4.88,-70.17 6,-55.25 31.31,-20.54 84.04,-12.23 116.79,-10.58"/>
<polygon fill="#63b8ff" stroke="#63b8ff" points="18.75,-104.69 28.43,-108.98 23.53,-99.59 18.75,-104.69"/>
</a>
</g>
</g>
<!-- Node4&#45;&gt;Node5 -->
<g id="edge4_Node000004_Node000005" class="edge">
<title>Node4&#45;&gt;Node5</title>
<g id="a_edge4_Node000004_Node000005"><a xlink:title=" ">
<path fill="none" stroke="#63b8ff" d="M71.31,-49.48C89.3,-39.99 112.3,-27.86 127.78,-19.7"/>
<polygon fill="#63b8ff" stroke="#63b8ff" points="69.69,-46.38 62.47,-54.14 72.95,-52.57 69.69,-46.38"/>
</a>
</g>
</g>
<!-- Node6&#45;&gt;Node5 -->
<g id="edge7_Node000006_Node000005" class="edge">
<title>Node6&#45;&gt;Node5</title>
<g id="a_edge7_Node000006_Node000005"><a xlink:title=" ">
<path fill="none" stroke="#63b8ff" d="M145,-43.63C145,-35.34 145,-26.17 145,-19.61"/>
<polygon fill="#63b8ff" stroke="#63b8ff" points="141.5,-43.57 145,-53.57 148.5,-43.57 141.5,-43.57"/>
</a>
</g>
</g>
<!-- Node7&#45;&gt;Node5 -->
<g id="edge9_Node000007_Node000005" class="edge">
<title>Node7&#45;&gt;Node5</title>
<g id="a_edge9_Node000007_Node000005"><a xlink:title=" ">
<path fill="none" stroke="#63b8ff" d="M222.54,-154.31C224.7,-129.32 225.02,-86.17 207,-55.25 197.52,-38.98 179.48,-27.03 165.29,-19.61"/>
<polygon fill="#63b8ff" stroke="#63b8ff" points="219.08,-153.73 221.5,-164.05 226.04,-154.48 219.08,-153.73"/>
</a>
</g>
</g>
<!-- Node8&#45;&gt;Node5 -->
<g id="edge11_Node000008_Node000005" class="edge">
<title>Node8&#45;&gt;Node5</title>
<g id="a_edge11_Node000008_Node000005"><a xlink:title=" ">
<path fill="none" stroke="#63b8ff" d="M282.07,-101.15C272.12,-87.23 256.88,-68.19 240,-55.25 219.18,-39.29 191.72,-27.16 171.68,-19.61"/>
<polygon fill="#63b8ff" stroke="#63b8ff" points="278.91,-102.74 287.47,-108.98 284.67,-98.76 278.91,-102.74"/>
</a>
</g>
</g>
</g>
</svg>
</svg>

<style type='text/css'>
<![CDATA[
[data-mouse-over-selected='false'] { opacity: 0.7; }
[data-mouse-over-selected='true']  { opacity: 1.0; }
]]>
</style>
<script type="application/ecmascript"><![CDATA[
document.addEventListener('DOMContentLoaded', (event) => {
  highlightEdges();
  highlightAdjacentNodes();
});
]]></script>
</svg>
