<?xml version="1.0" encoding="UTF-8" standalone="no"?>
<!DOCTYPE svg PUBLIC "-//W3C//DTD SVG 1.1//EN"
 "http://www.w3.org/Graphics/SVG/1.1/DTD/svg11.dtd">
<!-- Generated by graphviz version 13.1.2 (20250808.2320)
 -->
<!-- Title: Proxy.hpp Pages: 1 -->
<svg width="250pt" height="248pt"
 viewBox="0.00 0.00 250.00 248.00" xmlns="http://www.w3.org/2000/svg" xmlns:xlink="http://www.w3.org/1999/xlink">
<g id="graph0" class="graph" transform="scale(1 1) rotate(0) translate(4 244.25)">
<title>Proxy.hpp</title>
<!-- Node1 -->
<g id="Node000001" class="node">
<title>Node1</title>
<g id="a_Node000001"><a xlink:title=" ">
<polygon fill="#999999" stroke="#666666" points="179.38,-240.25 120.62,-240.25 120.62,-221 179.38,-221 179.38,-240.25"/>
<text xml:space="preserve" text-anchor="middle" x="150" y="-226.75" font-family="Helvetica,sans-Serif" font-size="10.00">Proxy.hpp</text>
</a>
</g>
</g>
<!-- Node2 -->
<g id="Node000002" class="node">
<title>Node2</title>
<g id="a_Node000002"><a xlink:href="_blocks_8hpp.html" target="_top" xlink:title=" ">
<polygon fill="white" stroke="#666666" points="118.38,-185 53.62,-185 53.62,-165.75 118.38,-165.75 118.38,-185"/>
<text xml:space="preserve" text-anchor="middle" x="86" y="-171.5" font-family="Helvetica,sans-Serif" font-size="10.00">Blocks.hpp</text>
</a>
</g>
</g>
<!-- Node1&#45;&gt;Node2 -->
<g id="edge1_Node000001_Node000002" class="edge">
<title>Node1&#45;&gt;Node2</title>
<g id="a_edge1_Node000001_Node000002"><a xlink:title=" ">
<path fill="none" stroke="#63b8ff" d="M139.14,-220.59C129.89,-212.9 116.38,-201.65 105.29,-192.43"/>
<polygon fill="#63b8ff" stroke="#63b8ff" points="107.79,-189.95 97.86,-186.24 103.31,-195.33 107.79,-189.95"/>
</a>
</g>
</g>
<!-- Node4 -->
<g id="Node000004" class="node">
<title>Node4</title>
<g id="a_Node000004"><a xlink:href="_flow_element_8hpp.html" target="_top" xlink:title=" ">
<polygon fill="white" stroke="#666666" points="174.88,-74.5 83.12,-74.5 83.12,-55.25 174.88,-55.25 174.88,-74.5"/>
<text xml:space="preserve" text-anchor="middle" x="129" y="-61" font-family="Helvetica,sans-Serif" font-size="10.00">FlowElement.hpp</text>
</a>
</g>
</g>
<!-- Node1&#45;&gt;Node4 -->
<g id="edge9_Node000001_Node000004" class="edge">
<title>Node1&#45;&gt;Node4</title>
<g id="a_edge9_Node000001_Node000004"><a xlink:title=" ">
<path fill="none" stroke="#63b8ff" d="M148.87,-220.82C145.62,-195.5 136.2,-122 131.59,-86.09"/>
<polygon fill="#63b8ff" stroke="#63b8ff" points="135.07,-85.7 130.33,-76.22 128.13,-86.59 135.07,-85.7"/>
</a>
</g>
</g>
<!-- Node8 -->
<g id="Node000008" class="node">
<title>Node8</title>
<g id="a_Node000008"><a xlink:title=" ">
<polygon fill="#e0e0e0" stroke="#999999" points="241.75,-19.25 188.25,-19.25 188.25,0 241.75,0 241.75,-19.25"/>
<text xml:space="preserve" text-anchor="middle" x="215" y="-5.75" font-family="Helvetica,sans-Serif" font-size="10.00">iostream</text>
</a>
</g>
</g>
<!-- Node1&#45;&gt;Node8 -->
<g id="edge10_Node000001_Node000008" class="edge">
<title>Node1&#45;&gt;Node8</title>
<g id="a_edge10_Node000001_Node000008"><a xlink:title=" ">
<path fill="none" stroke="#63b8ff" d="M152.63,-220.77C162.24,-188.37 195.66,-75.8 209.21,-30.12"/>
<polygon fill="#63b8ff" stroke="#63b8ff" points="212.49,-31.39 211.98,-20.8 205.78,-29.39 212.49,-31.39"/>
</a>
</g>
</g>
<!-- Node3 -->
<g id="Node000003" class="node">
<title>Node3</title>
<g id="a_Node000003"><a xlink:href="_base_block_8hpp.html" target="_top" xlink:title=" ">
<polygon fill="white" stroke="#666666" points="122,-129.75 40,-129.75 40,-110.5 122,-110.5 122,-129.75"/>
<text xml:space="preserve" text-anchor="middle" x="81" y="-116.25" font-family="Helvetica,sans-Serif" font-size="10.00">BaseBlock.hpp</text>
</a>
</g>
</g>
<!-- Node2&#45;&gt;Node3 -->
<g id="edge2_Node000002_Node000003" class="edge">
<title>Node2&#45;&gt;Node3</title>
<g id="a_edge2_Node000002_Node000003"><a xlink:title=" ">
<path fill="none" stroke="#63b8ff" d="M85.17,-165.58C84.56,-158.99 83.68,-149.71 82.9,-141.32"/>
<polygon fill="#63b8ff" stroke="#63b8ff" points="86.4,-141.25 81.99,-131.62 79.44,-141.9 86.4,-141.25"/>
</a>
</g>
</g>
<!-- Node3&#45;&gt;Node4 -->
<g id="edge3_Node000003_Node000004" class="edge">
<title>Node3&#45;&gt;Node4</title>
<g id="a_edge3_Node000003_Node000004"><a xlink:title=" ">
<path fill="none" stroke="#63b8ff" d="M88.93,-110.33C95.56,-102.98 105.22,-92.26 113.39,-83.19"/>
<polygon fill="#63b8ff" stroke="#63b8ff" points="115.79,-85.75 119.89,-75.98 110.59,-81.07 115.79,-85.75"/>
</a>
</g>
</g>
<!-- Node6 -->
<g id="Node000006" class="node">
<title>Node6</title>
<g id="a_Node000006"><a xlink:title=" ">
<polygon fill="#e0e0e0" stroke="#999999" points="40,-19.25 0,-19.25 0,0 40,0 40,-19.25"/>
<text xml:space="preserve" text-anchor="middle" x="20" y="-5.75" font-family="Helvetica,sans-Serif" font-size="10.00">string</text>
</a>
</g>
</g>
<!-- Node3&#45;&gt;Node6 -->
<g id="edge8_Node000003_Node000006" class="edge">
<title>Node3&#45;&gt;Node6</title>
<g id="a_edge8_Node000003_Node000006"><a xlink:title=" ">
<path fill="none" stroke="#63b8ff" d="M76.01,-110.25C66.13,-92.68 43.91,-53.16 30.62,-29.52"/>
<polygon fill="#63b8ff" stroke="#63b8ff" points="33.75,-27.95 25.8,-20.95 27.65,-31.38 33.75,-27.95"/>
</a>
</g>
</g>
<!-- Node5 -->
<g id="Node000005" class="node">
<title>Node5</title>
<g id="a_Node000005"><a xlink:title=" ">
<polygon fill="#e0e0e0" stroke="#999999" points="109.62,-19.25 58.38,-19.25 58.38,0 109.62,0 109.62,-19.25"/>
<text xml:space="preserve" text-anchor="middle" x="84" y="-5.75" font-family="Helvetica,sans-Serif" font-size="10.00">memory</text>
</a>
</g>
</g>
<!-- Node4&#45;&gt;Node5 -->
<g id="edge4_Node000004_Node000005" class="edge">
<title>Node4&#45;&gt;Node5</title>
<g id="a_edge4_Node000004_Node000005"><a xlink:title=" ">
<path fill="none" stroke="#63b8ff" d="M121.57,-55.08C115.42,-47.8 106.49,-37.23 98.87,-28.23"/>
<polygon fill="#63b8ff" stroke="#63b8ff" points="101.7,-26.14 92.57,-20.77 96.35,-30.66 101.7,-26.14"/>
</a>
</g>
</g>
<!-- Node4&#45;&gt;Node6 -->
<g id="edge5_Node000004_Node000006" class="edge">
<title>Node4&#45;&gt;Node6</title>
<g id="a_edge5_Node000004_Node000006"><a xlink:title=" ">
<path fill="none" stroke="#63b8ff" d="M110.51,-54.84C93.6,-46.58 68.31,-34.23 48.76,-24.68"/>
<polygon fill="#63b8ff" stroke="#63b8ff" points="50.46,-21.61 39.94,-20.37 47.39,-27.9 50.46,-21.61"/>
</a>
</g>
</g>
<!-- Node7 -->
<g id="Node000007" class="node">
<title>Node7</title>
<g id="a_Node000007"><a xlink:title=" ">
<polygon fill="#e0e0e0" stroke="#999999" points="170.5,-19.25 127.5,-19.25 127.5,0 170.5,0 170.5,-19.25"/>
<text xml:space="preserve" text-anchor="middle" x="149" y="-5.75" font-family="Helvetica,sans-Serif" font-size="10.00">vector</text>
</a>
</g>
</g>
<!-- Node4&#45;&gt;Node7 -->
<g id="edge6_Node000004_Node000007" class="edge">
<title>Node4&#45;&gt;Node7</title>
<g id="a_edge6_Node000004_Node000007"><a xlink:title=" ">
<path fill="none" stroke="#63b8ff" d="M132.3,-55.08C134.83,-48.34 138.43,-38.77 141.63,-30.24"/>
<polygon fill="#63b8ff" stroke="#63b8ff" points="144.85,-31.62 145.09,-21.03 138.3,-29.16 144.85,-31.62"/>
</a>
</g>
</g>
<!-- Node4&#45;&gt;Node8 -->
<g id="edge7_Node000004_Node000008" class="edge">
<title>Node4&#45;&gt;Node8</title>
<g id="a_edge7_Node000004_Node000008"><a xlink:title=" ">
<path fill="none" stroke="#63b8ff" d="M143.59,-54.84C156.44,-46.89 175.41,-35.14 190.57,-25.75"/>
<polygon fill="#63b8ff" stroke="#63b8ff" points="192.39,-28.74 199.05,-20.5 188.71,-22.79 192.39,-28.74"/>
</a>
</g>
</g>
</g>
</svg>
