<?xml version="1.0" encoding="UTF-8" standalone="no"?>
<!DOCTYPE svg PUBLIC "-//W3C//DTD SVG 1.1//EN"
 "http://www.w3.org/Graphics/SVG/1.1/DTD/svg11.dtd">
<!-- Generated by graphviz version 13.1.2 (20250808.2320)
 -->
<!-- Title: com::lab111::labwork3::BaseBlock Pages: 1 -->
<svg width="421pt" height="235pt"
 viewBox="0.00 0.00 421.00 235.00" xmlns="http://www.w3.org/2000/svg" xmlns:xlink="http://www.w3.org/1999/xlink">

<svg id="main" version="1.1" xmlns="http://www.w3.org/2000/svg" xmlns:xlink="http://www.w3.org/1999/xlink" xml:space="preserve">

<style type="text/css"><![CDATA[
.node, .edge {opacity: 0.7;}
.node.selected, .edge.selected {opacity: 1;}
.edge:hover path { stroke: red; }
.edge:hover polygon { stroke: red; fill: red; }
]]></style>
<script type="application/ecmascript" xlink:href="svg.min.js"/>
<svg id="graph" class="graph">
<g id="graph0" class="graph" transform="scale(1 1) rotate(0) translate(4 230.5)">
<title>com::lab111::labwork3::BaseBlock</title>
<!-- Node1 -->
<g id="Node000001" class="node">
<title>Node1</title>
<g id="a_Node000001"><a xlink:title="Представляє абстрактний базовий клас для всіх &quot;листових&quot; вузлів у блок&#45;схемі.">
<polygon fill="#999999" stroke="#666666" points="263,-128.5 149.5,-128.5 149.5,-98 263,-98 263,-128.5"/>
<text xml:space="preserve" text-anchor="start" x="157.5" y="-115" font-family="Helvetica,sans-Serif" font-size="10.00">com::lab111::labwork3</text>
<text xml:space="preserve" text-anchor="middle" x="206.25" y="-103.75" font-family="Helvetica,sans-Serif" font-size="10.00">::BaseBlock</text>
</a>
</g>
</g>
<!-- Node3 -->
<g id="Node000003" class="node">
<title>Node3</title>
<g id="a_Node000003"><a xlink:href="classcom_1_1lab111_1_1labwork3_1_1_decision_block.html" target="_top" xlink:title="Представляє блок прийняття рішення (умова).">
<polygon fill="white" stroke="#666666" points="412.5,-226.5 299,-226.5 299,-196 412.5,-196 412.5,-226.5"/>
<text xml:space="preserve" text-anchor="start" x="307" y="-213" font-family="Helvetica,sans-Serif" font-size="10.00">com::lab111::labwork3</text>
<text xml:space="preserve" text-anchor="middle" x="355.75" y="-201.75" font-family="Helvetica,sans-Serif" font-size="10.00">::DecisionBlock</text>
</a>
</g>
</g>
<!-- Node1&#45;&gt;Node3 -->
<g id="edge2_Node000001_Node000003" class="edge">
<title>Node1&#45;&gt;Node3</title>
<g id="a_edge2_Node000001_Node000003"><a xlink:title=" ">
<path fill="none" stroke="#63b8ff" d="M232.81,-136.47C250.54,-151.83 275.16,-171.74 299,-186.25 304.44,-189.56 310.39,-192.69 316.31,-195.55"/>
<polygon fill="#63b8ff" stroke="#63b8ff" points="235.17,-133.88 225.35,-129.91 230.55,-139.14 235.17,-133.88"/>
</a>
</g>
</g>
<!-- Node4 -->
<g id="Node000004" class="node">
<title>Node4</title>
<g id="a_Node000004"><a xlink:href="classcom_1_1lab111_1_1labwork3_1_1_end_block.html" target="_top" xlink:title="Представляє кінцевий блок у блок&#45;схемі.">
<polygon fill="white" stroke="#666666" points="412.5,-177.5 299,-177.5 299,-147 412.5,-147 412.5,-177.5"/>
<text xml:space="preserve" text-anchor="start" x="307" y="-164" font-family="Helvetica,sans-Serif" font-size="10.00">com::lab111::labwork3</text>
<text xml:space="preserve" text-anchor="middle" x="355.75" y="-152.75" font-family="Helvetica,sans-Serif" font-size="10.00">::EndBlock</text>
</a>
</g>
</g>
<!-- Node1&#45;&gt;Node4 -->
<g id="edge3_Node000001_Node000004" class="edge">
<title>Node1&#45;&gt;Node4</title>
<g id="a_edge3_Node000001_Node000004"><a xlink:title=" ">
<path fill="none" stroke="#63b8ff" d="M264.88,-132.4C278.95,-137.07 293.84,-142.01 307.36,-146.51"/>
<polygon fill="#63b8ff" stroke="#63b8ff" points="266.36,-129.2 255.76,-129.37 264.15,-135.84 266.36,-129.2"/>
</a>
</g>
</g>
<!-- Node5 -->
<g id="Node000005" class="node">
<title>Node5</title>
<g id="a_Node000005"><a xlink:href="classcom_1_1lab111_1_1labwork3_1_1_input_output_block.html" target="_top" xlink:title="Представляє блок введення/виведення.">
<polygon fill="white" stroke="#666666" points="412.5,-128.5 299,-128.5 299,-98 412.5,-98 412.5,-128.5"/>
<text xml:space="preserve" text-anchor="start" x="307" y="-115" font-family="Helvetica,sans-Serif" font-size="10.00">com::lab111::labwork3</text>
<text xml:space="preserve" text-anchor="middle" x="355.75" y="-103.75" font-family="Helvetica,sans-Serif" font-size="10.00">::InputOutputBlock</text>
</a>
</g>
</g>
<!-- Node1&#45;&gt;Node5 -->
<g id="edge4_Node000001_Node000005" class="edge">
<title>Node1&#45;&gt;Node5</title>
<g id="a_edge4_Node000001_Node000005"><a xlink:title=" ">
<path fill="none" stroke="#63b8ff" d="M274.69,-113.25C282.73,-113.25 290.87,-113.25 298.72,-113.25"/>
<polygon fill="#63b8ff" stroke="#63b8ff" points="274.95,-109.75 264.95,-113.25 274.95,-116.75 274.95,-109.75"/>
</a>
</g>
</g>
<!-- Node6 -->
<g id="Node000006" class="node">
<title>Node6</title>
<g id="a_Node000006"><a xlink:href="classcom_1_1lab111_1_1labwork3_1_1_process_block.html" target="_top" xlink:title="Представляє блок обробки (дії).">
<polygon fill="white" stroke="#666666" points="412.5,-79.5 299,-79.5 299,-49 412.5,-49 412.5,-79.5"/>
<text xml:space="preserve" text-anchor="start" x="307" y="-66" font-family="Helvetica,sans-Serif" font-size="10.00">com::lab111::labwork3</text>
<text xml:space="preserve" text-anchor="middle" x="355.75" y="-54.75" font-family="Helvetica,sans-Serif" font-size="10.00">::ProcessBlock</text>
</a>
</g>
</g>
<!-- Node1&#45;&gt;Node6 -->
<g id="edge5_Node000001_Node000006" class="edge">
<title>Node1&#45;&gt;Node6</title>
<g id="a_edge5_Node000001_Node000006"><a xlink:title=" ">
<path fill="none" stroke="#63b8ff" d="M264.88,-94.1C278.95,-89.43 293.84,-84.49 307.36,-79.99"/>
<polygon fill="#63b8ff" stroke="#63b8ff" points="264.15,-90.66 255.76,-97.13 266.36,-97.3 264.15,-90.66"/>
</a>
</g>
</g>
<!-- Node7 -->
<g id="Node000007" class="node">
<title>Node7</title>
<g id="a_Node000007"><a xlink:href="classcom_1_1lab111_1_1labwork3_1_1_start_block.html" target="_top" xlink:title="Представляє початковий блок у блок&#45;схемі.">
<polygon fill="white" stroke="#666666" points="412.5,-30.5 299,-30.5 299,0 412.5,0 412.5,-30.5"/>
<text xml:space="preserve" text-anchor="start" x="307" y="-17" font-family="Helvetica,sans-Serif" font-size="10.00">com::lab111::labwork3</text>
<text xml:space="preserve" text-anchor="middle" x="355.75" y="-5.75" font-family="Helvetica,sans-Serif" font-size="10.00">::StartBlock</text>
</a>
</g>
</g>
<!-- Node1&#45;&gt;Node7 -->
<g id="edge6_Node000001_Node000007" class="edge">
<title>Node1&#45;&gt;Node7</title>
<g id="a_edge6_Node000001_Node000007"><a xlink:title=" ">
<path fill="none" stroke="#63b8ff" d="M232.81,-90.03C250.54,-74.67 275.16,-54.76 299,-40.25 304.44,-36.94 310.39,-33.81 316.31,-30.95"/>
<polygon fill="#63b8ff" stroke="#63b8ff" points="230.55,-87.36 225.35,-96.59 235.17,-92.62 230.55,-87.36"/>
</a>
</g>
</g>
<!-- Node2 -->
<g id="Node000002" class="node">
<title>Node2</title>
<g id="a_Node000002"><a xlink:href="classcom_1_1lab111_1_1labwork3_1_1_flow_element.html" target="_top" xlink:title="Представляє абстрактний базовий інтерфейс (Component) для всіх елементів блок&#45;схеми.">
<polygon fill="white" stroke="#666666" points="113.5,-128.5 0,-128.5 0,-98 113.5,-98 113.5,-128.5"/>
<text xml:space="preserve" text-anchor="start" x="8" y="-115" font-family="Helvetica,sans-Serif" font-size="10.00">com::lab111::labwork3</text>
<text xml:space="preserve" text-anchor="middle" x="56.75" y="-103.75" font-family="Helvetica,sans-Serif" font-size="10.00">::FlowElement</text>
</a>
</g>
</g>
<!-- Node2&#45;&gt;Node1 -->
<g id="edge1_Node000001_Node000002" class="edge">
<title>Node2&#45;&gt;Node1</title>
<g id="a_edge1_Node000001_Node000002"><a xlink:title=" ">
<path fill="none" stroke="#63b8ff" d="M125.19,-113.25C133.23,-113.25 141.37,-113.25 149.22,-113.25"/>
<polygon fill="#63b8ff" stroke="#63b8ff" points="125.45,-109.75 115.45,-113.25 125.45,-116.75 125.45,-109.75"/>
</a>
</g>
</g>
</g>
</svg>
</svg>

<style type='text/css'>
<![CDATA[
[data-mouse-over-selected='false'] { opacity: 0.7; }
[data-mouse-over-selected='true']  { opacity: 1.0; }
]]>
</style>
<script type="application/ecmascript"><![CDATA[
document.addEventListener('DOMContentLoaded', (event) => {
  highlightEdges();
  highlightAdjacentNodes();
});
]]></script>
</svg>
