<?xml version="1.0" encoding="UTF-8" standalone="no"?>
<!DOCTYPE svg PUBLIC "-//W3C//DTD SVG 1.1//EN"
 "http://www.w3.org/Graphics/SVG/1.1/DTD/svg11.dtd">
<!-- Generated by graphviz version 13.1.2 (20250808.2320)
 -->
<!-- Title: Иерархия классов. Графический вид. Pages: 1 -->
<svg width="421pt" height="320pt"
 viewBox="0.00 0.00 421.00 320.00" xmlns="http://www.w3.org/2000/svg" xmlns:xlink="http://www.w3.org/1999/xlink">
<g id="graph0" class="graph" transform="scale(1 1) rotate(0) translate(4 315.5)">
<title>Иерархия классов. Графический вид.</title>
<!-- Node0 -->
<g id="Node000000" class="node">
<title>Node0</title>
<g id="a_Node000000"><a xlink:href="classcom_1_1lab111_1_1labwork3_1_1_flow_element.html" target="_top" xlink:title="Представляє абстрактний базовий інтерфейс (Component) для всіх елементів блок&#45;схеми.">
<polygon fill="white" stroke="#666666" points="113.5,-103.5 0,-103.5 0,-73 113.5,-73 113.5,-103.5"/>
<text xml:space="preserve" text-anchor="start" x="8" y="-90" font-family="Helvetica,sans-Serif" font-size="10.00">com::lab111::labwork3</text>
<text xml:space="preserve" text-anchor="middle" x="56.75" y="-78.75" font-family="Helvetica,sans-Serif" font-size="10.00">::FlowElement</text>
</a>
</g>
</g>
<!-- Node1 -->
<g id="Node000001" class="node">
<title>Node1</title>
<g id="a_Node000001"><a xlink:href="classcom_1_1lab111_1_1labwork3_1_1_base_block.html" target="_top" xlink:title="Представляє абстрактний базовий клас для всіх &quot;листових&quot; вузлів у блок&#45;схемі.">
<polygon fill="white" stroke="#666666" points="263,-201.5 149.5,-201.5 149.5,-171 263,-171 263,-201.5"/>
<text xml:space="preserve" text-anchor="start" x="157.5" y="-188" font-family="Helvetica,sans-Serif" font-size="10.00">com::lab111::labwork3</text>
<text xml:space="preserve" text-anchor="middle" x="206.25" y="-176.75" font-family="Helvetica,sans-Serif" font-size="10.00">::BaseBlock</text>
</a>
</g>
</g>
<!-- Node0&#45;&gt;Node1 -->
<g id="edge1_Node000000_Node000001" class="edge">
<title>Node0&#45;&gt;Node1</title>
<g id="a_edge1_Node000000_Node000001"><a xlink:title=" ">
<path fill="none" stroke="#63b8ff" d="M90.7,-110.14C118.3,-128.48 157.01,-154.2 181.61,-170.54"/>
<polygon fill="#63b8ff" stroke="#63b8ff" points="92.98,-107.45 82.71,-104.83 89.1,-113.28 92.98,-107.45"/>
</a>
</g>
</g>
<!-- Node7 -->
<g id="Node000007" class="node">
<title>Node7</title>
<g id="a_Node000007"><a xlink:href="classcom_1_1lab111_1_1labwork3_1_1_composite_block.html" target="_top" xlink:title="Представляє композитний блок, який може містити інші елементи блок&#45;схеми.">
<polygon fill="white" stroke="#666666" points="263,-128.5 149.5,-128.5 149.5,-98 263,-98 263,-128.5"/>
<text xml:space="preserve" text-anchor="start" x="157.5" y="-115" font-family="Helvetica,sans-Serif" font-size="10.00">com::lab111::labwork3</text>
<text xml:space="preserve" text-anchor="middle" x="206.25" y="-103.75" font-family="Helvetica,sans-Serif" font-size="10.00">::CompositeBlock</text>
</a>
</g>
</g>
<!-- Node0&#45;&gt;Node7 -->
<g id="edge7_Node000000_Node000007" class="edge">
<title>Node0&#45;&gt;Node7</title>
<g id="a_edge7_Node000000_Node000007"><a xlink:title=" ">
<path fill="none" stroke="#63b8ff" d="M125.19,-99.68C133.23,-101.04 141.37,-102.42 149.22,-103.75"/>
<polygon fill="#63b8ff" stroke="#63b8ff" points="125.87,-96.25 115.43,-98.03 124.7,-103.15 125.87,-96.25"/>
</a>
</g>
</g>
<!-- Node8 -->
<g id="Node000008" class="node">
<title>Node8</title>
<g id="a_Node000008"><a xlink:href="classcom_1_1lab111_1_1labwork3_1_1_decorator.html" target="_top" xlink:title="Абстрактний базовий клас для декораторів у патерні Decorator.">
<polygon fill="white" stroke="#666666" points="263,-79.5 149.5,-79.5 149.5,-49 263,-49 263,-79.5"/>
<text xml:space="preserve" text-anchor="start" x="157.5" y="-66" font-family="Helvetica,sans-Serif" font-size="10.00">com::lab111::labwork3</text>
<text xml:space="preserve" text-anchor="middle" x="206.25" y="-54.75" font-family="Helvetica,sans-Serif" font-size="10.00">::Decorator</text>
</a>
</g>
</g>
<!-- Node0&#45;&gt;Node8 -->
<g id="edge8_Node000000_Node000008" class="edge">
<title>Node0&#45;&gt;Node8</title>
<g id="a_edge8_Node000000_Node000008"><a xlink:title=" ">
<path fill="none" stroke="#63b8ff" d="M125.19,-77.28C133.23,-75.97 141.37,-74.64 149.22,-73.37"/>
<polygon fill="#63b8ff" stroke="#63b8ff" points="124.74,-73.8 115.43,-78.87 125.86,-80.71 124.74,-73.8"/>
</a>
</g>
</g>
<!-- Node10 -->
<g id="Node000010" class="node">
<title>Node10</title>
<g id="a_Node000010"><a xlink:href="classcom_1_1lab111_1_1labwork3_1_1_lazy_process_proxy.html" target="_top" xlink:title="Клас, що виступає в ролі віртуального проксі для ProcessBlock.">
<polygon fill="white" stroke="#666666" points="263,-30.5 149.5,-30.5 149.5,0 263,0 263,-30.5"/>
<text xml:space="preserve" text-anchor="start" x="157.5" y="-17" font-family="Helvetica,sans-Serif" font-size="10.00">com::lab111::labwork3</text>
<text xml:space="preserve" text-anchor="middle" x="206.25" y="-5.75" font-family="Helvetica,sans-Serif" font-size="10.00">::LazyProcessProxy</text>
</a>
</g>
</g>
<!-- Node0&#45;&gt;Node10 -->
<g id="edge10_Node000000_Node000010" class="edge">
<title>Node0&#45;&gt;Node10</title>
<g id="a_edge10_Node000000_Node000010"><a xlink:title=" ">
<path fill="none" stroke="#63b8ff" d="M96.19,-67.48C112.51,-58.83 131.82,-48.83 149.5,-40.25 155.89,-37.15 162.76,-33.96 169.41,-30.94"/>
<polygon fill="#63b8ff" stroke="#63b8ff" points="94.97,-64.17 87.78,-71.95 98.26,-70.34 94.97,-64.17"/>
</a>
</g>
</g>
<!-- Node2 -->
<g id="Node000002" class="node">
<title>Node2</title>
<g id="a_Node000002"><a xlink:href="classcom_1_1lab111_1_1labwork3_1_1_decision_block.html" target="_top" xlink:title="Представляє блок прийняття рішення (умова).">
<polygon fill="white" stroke="#666666" points="412.5,-311.5 299,-311.5 299,-281 412.5,-281 412.5,-311.5"/>
<text xml:space="preserve" text-anchor="start" x="307" y="-298" font-family="Helvetica,sans-Serif" font-size="10.00">com::lab111::labwork3</text>
<text xml:space="preserve" text-anchor="middle" x="355.75" y="-286.75" font-family="Helvetica,sans-Serif" font-size="10.00">::DecisionBlock</text>
</a>
</g>
</g>
<!-- Node1&#45;&gt;Node2 -->
<g id="edge2_Node000001_Node000002" class="edge">
<title>Node1&#45;&gt;Node2</title>
<g id="a_edge2_Node000001_Node000002"><a xlink:title=" ">
<path fill="none" stroke="#63b8ff" d="M228.59,-209.87C246.16,-228.31 272.42,-253.67 299,-271.25 304.13,-274.64 309.8,-277.78 315.5,-280.61"/>
<polygon fill="#63b8ff" stroke="#63b8ff" points="231.36,-207.7 221.97,-202.79 226.25,-212.48 231.36,-207.7"/>
</a>
</g>
</g>
<!-- Node3 -->
<g id="Node000003" class="node">
<title>Node3</title>
<g id="a_Node000003"><a xlink:href="classcom_1_1lab111_1_1labwork3_1_1_end_block.html" target="_top" xlink:title="Представляє кінцевий блок у блок&#45;схемі.">
<polygon fill="white" stroke="#666666" points="412.5,-262.5 299,-262.5 299,-232 412.5,-232 412.5,-262.5"/>
<text xml:space="preserve" text-anchor="start" x="307" y="-249" font-family="Helvetica,sans-Serif" font-size="10.00">com::lab111::labwork3</text>
<text xml:space="preserve" text-anchor="middle" x="355.75" y="-237.75" font-family="Helvetica,sans-Serif" font-size="10.00">::EndBlock</text>
</a>
</g>
</g>
<!-- Node1&#45;&gt;Node3 -->
<g id="edge3_Node000001_Node000003" class="edge">
<title>Node1&#45;&gt;Node3</title>
<g id="a_edge3_Node000001_Node000003"><a xlink:title=" ">
<path fill="none" stroke="#63b8ff" d="M255.65,-206.27C275.55,-214.49 298.25,-223.88 316.89,-231.59"/>
<polygon fill="#63b8ff" stroke="#63b8ff" points="257.21,-203.12 246.63,-202.54 254.54,-209.59 257.21,-203.12"/>
</a>
</g>
</g>
<!-- Node4 -->
<g id="Node000004" class="node">
<title>Node4</title>
<g id="a_Node000004"><a xlink:href="classcom_1_1lab111_1_1labwork3_1_1_input_output_block.html" target="_top" xlink:title="Представляє блок введення/виведення.">
<polygon fill="white" stroke="#666666" points="412.5,-213.5 299,-213.5 299,-183 412.5,-183 412.5,-213.5"/>
<text xml:space="preserve" text-anchor="start" x="307" y="-200" font-family="Helvetica,sans-Serif" font-size="10.00">com::lab111::labwork3</text>
<text xml:space="preserve" text-anchor="middle" x="355.75" y="-188.75" font-family="Helvetica,sans-Serif" font-size="10.00">::InputOutputBlock</text>
</a>
</g>
</g>
<!-- Node1&#45;&gt;Node4 -->
<g id="edge4_Node000001_Node000004" class="edge">
<title>Node1&#45;&gt;Node4</title>
<g id="a_edge4_Node000001_Node000004"><a xlink:title=" ">
<path fill="none" stroke="#63b8ff" d="M274.69,-191.74C282.73,-192.39 290.87,-193.05 298.72,-193.69"/>
<polygon fill="#63b8ff" stroke="#63b8ff" points="275.19,-188.27 264.94,-190.94 274.63,-195.24 275.19,-188.27"/>
</a>
</g>
</g>
<!-- Node5 -->
<g id="Node000005" class="node">
<title>Node5</title>
<g id="a_Node000005"><a xlink:href="classcom_1_1lab111_1_1labwork3_1_1_process_block.html" target="_top" xlink:title="Представляє блок обробки (дії).">
<polygon fill="white" stroke="#666666" points="412.5,-164.5 299,-164.5 299,-134 412.5,-134 412.5,-164.5"/>
<text xml:space="preserve" text-anchor="start" x="307" y="-151" font-family="Helvetica,sans-Serif" font-size="10.00">com::lab111::labwork3</text>
<text xml:space="preserve" text-anchor="middle" x="355.75" y="-139.75" font-family="Helvetica,sans-Serif" font-size="10.00">::ProcessBlock</text>
</a>
</g>
</g>
<!-- Node1&#45;&gt;Node5 -->
<g id="edge5_Node000001_Node000005" class="edge">
<title>Node1&#45;&gt;Node5</title>
<g id="a_edge5_Node000001_Node000005"><a xlink:title=" ">
<path fill="none" stroke="#63b8ff" d="M274.41,-169.4C282.54,-167.36 290.78,-165.3 298.72,-163.3"/>
<polygon fill="#63b8ff" stroke="#63b8ff" points="273.75,-165.96 264.9,-171.79 275.45,-172.75 273.75,-165.96"/>
</a>
</g>
</g>
<!-- Node6 -->
<g id="Node000006" class="node">
<title>Node6</title>
<g id="a_Node000006"><a xlink:href="classcom_1_1lab111_1_1labwork3_1_1_start_block.html" target="_top" xlink:title="Представляє початковий блок у блок&#45;схемі.">
<polygon fill="white" stroke="#666666" points="412.5,-115.5 299,-115.5 299,-85 412.5,-85 412.5,-115.5"/>
<text xml:space="preserve" text-anchor="start" x="307" y="-102" font-family="Helvetica,sans-Serif" font-size="10.00">com::lab111::labwork3</text>
<text xml:space="preserve" text-anchor="middle" x="355.75" y="-90.75" font-family="Helvetica,sans-Serif" font-size="10.00">::StartBlock</text>
</a>
</g>
</g>
<!-- Node1&#45;&gt;Node6 -->
<g id="edge6_Node000001_Node000006" class="edge">
<title>Node1&#45;&gt;Node6</title>
<g id="a_edge6_Node000001_Node000006"><a xlink:title=" ">
<path fill="none" stroke="#63b8ff" d="M237.64,-164.21C255.14,-151.99 277.8,-136.94 299,-125.25 304.85,-122.02 311.2,-118.87 317.44,-115.95"/>
<polygon fill="#63b8ff" stroke="#63b8ff" points="235.88,-161.16 229.73,-169.79 239.92,-166.88 235.88,-161.16"/>
</a>
</g>
</g>
<!-- Node9 -->
<g id="Node000009" class="node">
<title>Node9</title>
<g id="a_Node000009"><a xlink:href="classcom_1_1lab111_1_1labwork3_1_1_logging_decorator.html" target="_top" xlink:title="Конкретний декоратор, що додає функцію логування до операцій.">
<polygon fill="white" stroke="#666666" points="412.5,-66.5 299,-66.5 299,-36 412.5,-36 412.5,-66.5"/>
<text xml:space="preserve" text-anchor="start" x="307" y="-53" font-family="Helvetica,sans-Serif" font-size="10.00">com::lab111::labwork3</text>
<text xml:space="preserve" text-anchor="middle" x="355.75" y="-41.75" font-family="Helvetica,sans-Serif" font-size="10.00">::LoggingDecorator</text>
</a>
</g>
</g>
<!-- Node8&#45;&gt;Node9 -->
<g id="edge9_Node000008_Node000009" class="edge">
<title>Node8&#45;&gt;Node9</title>
<g id="a_edge9_Node000008_Node000009"><a xlink:title=" ">
<path fill="none" stroke="#63b8ff" d="M274.69,-58.31C282.73,-57.6 290.87,-56.88 298.72,-56.19"/>
<polygon fill="#63b8ff" stroke="#63b8ff" points="274.6,-54.8 264.94,-59.17 275.21,-61.77 274.6,-54.8"/>
</a>
</g>
</g>
</g>
</svg>
