<?xml version="1.0" encoding="UTF-8" standalone="no"?>
<!DOCTYPE svg PUBLIC "-//W3C//DTD SVG 1.1//EN"
 "http://www.w3.org/Graphics/SVG/1.1/DTD/svg11.dtd">
<!-- Generated by graphviz version 13.1.2 (20250808.2320)
 -->
<!-- Title: main.cpp Pages: 1 -->
<svg width="594pt" height="304pt"
 viewBox="0.00 0.00 594.00 304.00" xmlns="http://www.w3.org/2000/svg" xmlns:xlink="http://www.w3.org/1999/xlink">
<g id="graph0" class="graph" transform="scale(1 1) rotate(0) translate(4 299.5)">
<title>main.cpp</title>
<!-- Node1 -->
<g id="Node000001" class="node">
<title>Node1</title>
<g id="a_Node000001"><a xlink:title=" ">
<polygon fill="#999999" stroke="#666666" points="317.18,-295.5 261.43,-295.5 261.43,-276.25 317.18,-276.25 317.18,-295.5"/>
<text xml:space="preserve" text-anchor="middle" x="289.3" y="-282" font-family="Helvetica,sans-Serif" font-size="10.00">main.cpp</text>
</a>
</g>
</g>
<!-- Node2 -->
<g id="Node000002" class="node">
<title>Node2</title>
<g id="a_Node000002"><a xlink:href="_flow_chart_8hpp.html" target="_top" xlink:title=" ">
<polygon fill="white" stroke="#666666" points="190.18,-129.75 110.43,-129.75 110.43,-110.5 190.18,-110.5 190.18,-129.75"/>
<text xml:space="preserve" text-anchor="middle" x="150.3" y="-116.25" font-family="Helvetica,sans-Serif" font-size="10.00">FlowChart.hpp</text>
</a>
</g>
</g>
<!-- Node1&#45;&gt;Node2 -->
<g id="edge1_Node000001_Node000002" class="edge">
<title>Node1&#45;&gt;Node2</title>
<g id="a_edge1_Node000001_Node000002"><a xlink:title=" ">
<path fill="none" stroke="#63b8ff" d="M281.83,-276.07C259.77,-250.08 194.63,-173.34 165.12,-138.59"/>
<polygon fill="#63b8ff" stroke="#63b8ff" points="167.93,-136.49 158.79,-131.13 162.59,-141.02 167.93,-136.49"/>
</a>
</g>
</g>
<!-- Node4 -->
<g id="Node000004" class="node">
<title>Node4</title>
<g id="a_Node000004"><a xlink:title=" ">
<polygon fill="#e0e0e0" stroke="#999999" points="163.93,-19.25 112.68,-19.25 112.68,0 163.93,0 163.93,-19.25"/>
<text xml:space="preserve" text-anchor="middle" x="138.3" y="-5.75" font-family="Helvetica,sans-Serif" font-size="10.00">memory</text>
</a>
</g>
</g>
<!-- Node1&#45;&gt;Node4 -->
<g id="edge27_Node000001_Node000004" class="edge">
<title>Node1&#45;&gt;Node4</title>
<g id="a_edge27_Node000001_Node000004"><a xlink:title=" ">
<path fill="none" stroke="#63b8ff" d="M261.06,-280.48C188.34,-268.37 0.3,-231.71 0.3,-176.38 0.3,-176.38 0.3,-176.38 0.3,-119.12 0.3,-89.51 -0.9,-76.91 19.3,-55.25 40.67,-32.34 74.94,-21.11 101.23,-15.66"/>
<polygon fill="#63b8ff" stroke="#63b8ff" points="101.63,-19.15 110.82,-13.88 100.35,-12.27 101.63,-19.15"/>
</a>
</g>
</g>
<!-- Node9 -->
<g id="Node000009" class="node">
<title>Node9</title>
<g id="a_Node000009"><a xlink:href="_blocks_8hpp.html" target="_top" xlink:title=" ">
<polygon fill="white" stroke="#666666" points="290.68,-185 225.93,-185 225.93,-165.75 290.68,-165.75 290.68,-185"/>
<text xml:space="preserve" text-anchor="middle" x="258.3" y="-171.5" font-family="Helvetica,sans-Serif" font-size="10.00">Blocks.hpp</text>
</a>
</g>
</g>
<!-- Node1&#45;&gt;Node9 -->
<g id="edge10_Node000001_Node000009" class="edge">
<title>Node1&#45;&gt;Node9</title>
<g id="a_edge10_Node000001_Node000009"><a xlink:title=" ">
<path fill="none" stroke="#63b8ff" d="M286.76,-276C281.81,-258.67 270.76,-219.98 263.98,-196.24"/>
<polygon fill="#63b8ff" stroke="#63b8ff" points="267.4,-195.49 261.29,-186.83 260.67,-197.41 267.4,-195.49"/>
</a>
</g>
</g>
<!-- Node11 -->
<g id="Node000011" class="node">
<title>Node11</title>
<g id="a_Node000011"><a xlink:href="_composite_block_8hpp.html" target="_top" xlink:title=" ">
<polygon fill="white" stroke="#666666" points="585.68,-129.75 478.93,-129.75 478.93,-110.5 585.68,-110.5 585.68,-129.75"/>
<text xml:space="preserve" text-anchor="middle" x="532.3" y="-116.25" font-family="Helvetica,sans-Serif" font-size="10.00">CompositeBlock.hpp</text>
</a>
</g>
</g>
<!-- Node1&#45;&gt;Node11 -->
<g id="edge14_Node000001_Node000011" class="edge">
<title>Node1&#45;&gt;Node11</title>
<g id="a_edge14_Node000001_Node000011"><a xlink:title=" ">
<path fill="none" stroke="#63b8ff" d="M309.81,-275.8C328.02,-267.43 355.13,-254.22 377.3,-240.25 429.15,-207.58 484.98,-161.72 513.37,-137.54"/>
<polygon fill="#63b8ff" stroke="#63b8ff" points="515.44,-140.38 520.75,-131.21 510.89,-135.06 515.44,-140.38"/>
</a>
</g>
</g>
<!-- Node13 -->
<g id="Node000013" class="node">
<title>Node13</title>
<g id="a_Node000013"><a xlink:href="_decorator_8hpp.html" target="_top" xlink:title=" ">
<polygon fill="white" stroke="#666666" points="460.68,-129.75 383.93,-129.75 383.93,-110.5 460.68,-110.5 460.68,-129.75"/>
<text xml:space="preserve" text-anchor="middle" x="422.3" y="-116.25" font-family="Helvetica,sans-Serif" font-size="10.00">Decorator.hpp</text>
</a>
</g>
</g>
<!-- Node1&#45;&gt;Node13 -->
<g id="edge19_Node000001_Node000013" class="edge">
<title>Node1&#45;&gt;Node13</title>
<g id="a_edge19_Node000001_Node000013"><a xlink:title=" ">
<path fill="none" stroke="#63b8ff" d="M307.22,-275.79C321.54,-267.87 341.43,-255.31 355.3,-240.25 383.33,-209.81 404.26,-165.57 414.76,-140.45"/>
<polygon fill="#63b8ff" stroke="#63b8ff" points="417.88,-142.07 418.38,-131.49 411.39,-139.45 417.88,-142.07"/>
</a>
</g>
</g>
<!-- Node14 -->
<g id="Node000014" class="node">
<title>Node14</title>
<g id="a_Node000014"><a xlink:href="_proxy_8hpp.html" target="_top" xlink:title=" ">
<polygon fill="white" stroke="#666666" points="346.68,-240.25 287.93,-240.25 287.93,-221 346.68,-221 346.68,-240.25"/>
<text xml:space="preserve" text-anchor="middle" x="317.3" y="-226.75" font-family="Helvetica,sans-Serif" font-size="10.00">Proxy.hpp</text>
</a>
</g>
</g>
<!-- Node1&#45;&gt;Node14 -->
<g id="edge23_Node000001_Node000014" class="edge">
<title>Node1&#45;&gt;Node14</title>
<g id="a_edge23_Node000001_Node000014"><a xlink:title=" ">
<path fill="none" stroke="#63b8ff" d="M293.92,-276.08C297.55,-269.19 302.73,-259.34 307.29,-250.66"/>
<polygon fill="#63b8ff" stroke="#63b8ff" points="310.32,-252.43 311.87,-241.95 304.12,-249.17 310.32,-252.43"/>
</a>
</g>
</g>
<!-- Node3 -->
<g id="Node000003" class="node">
<title>Node3</title>
<g id="a_Node000003"><a xlink:href="_flow_element_8hpp.html" target="_top" xlink:title=" ">
<polygon fill="white" stroke="#666666" points="334.18,-74.5 242.43,-74.5 242.43,-55.25 334.18,-55.25 334.18,-74.5"/>
<text xml:space="preserve" text-anchor="middle" x="288.3" y="-61" font-family="Helvetica,sans-Serif" font-size="10.00">FlowElement.hpp</text>
</a>
</g>
</g>
<!-- Node2&#45;&gt;Node3 -->
<g id="edge2_Node000002_Node000003" class="edge">
<title>Node2&#45;&gt;Node3</title>
<g id="a_edge2_Node000002_Node000003"><a xlink:title=" ">
<path fill="none" stroke="#63b8ff" d="M173.71,-110.09C195.82,-101.56 229.22,-88.67 254.27,-79.01"/>
<polygon fill="#63b8ff" stroke="#63b8ff" points="255.29,-82.36 263.36,-75.5 252.77,-75.83 255.29,-82.36"/>
</a>
</g>
</g>
<!-- Node2&#45;&gt;Node4 -->
<g id="edge8_Node000002_Node000004" class="edge">
<title>Node2&#45;&gt;Node4</title>
<g id="a_edge8_Node000002_Node000004"><a xlink:title=" ">
<path fill="none" stroke="#63b8ff" d="M149.32,-110.25C147.41,-93 143.16,-54.58 140.53,-30.81"/>
<polygon fill="#63b8ff" stroke="#63b8ff" points="144.04,-30.69 139.46,-21.13 137.08,-31.46 144.04,-30.69"/>
</a>
</g>
</g>
<!-- Node7 -->
<g id="Node000007" class="node">
<title>Node7</title>
<g id="a_Node000007"><a xlink:title=" ">
<polygon fill="#e0e0e0" stroke="#999999" points="389.05,-19.25 335.55,-19.25 335.55,0 389.05,0 389.05,-19.25"/>
<text xml:space="preserve" text-anchor="middle" x="362.3" y="-5.75" font-family="Helvetica,sans-Serif" font-size="10.00">iostream</text>
</a>
</g>
</g>
<!-- Node2&#45;&gt;Node7 -->
<g id="edge9_Node000002_Node000007" class="edge">
<title>Node2&#45;&gt;Node7</title>
<g id="a_edge9_Node000002_Node000007"><a xlink:title=" ">
<path fill="none" stroke="#63b8ff" d="M159.79,-110.14C174.51,-96.61 204.17,-70.95 233.3,-55.25 262.19,-39.67 297.58,-27.89 323.98,-20.35"/>
<polygon fill="#63b8ff" stroke="#63b8ff" points="324.9,-23.73 333.6,-17.69 323.03,-16.98 324.9,-23.73"/>
</a>
</g>
</g>
<!-- Node8 -->
<g id="Node000008" class="node">
<title>Node8</title>
<g id="a_Node000008"><a xlink:title=" ">
<polygon fill="#e0e0e0" stroke="#999999" points="110.68,-74.5 27.93,-74.5 27.93,-55.25 110.68,-55.25 110.68,-74.5"/>
<text xml:space="preserve" text-anchor="middle" x="69.3" y="-61" font-family="Helvetica,sans-Serif" font-size="10.00">unordered_map</text>
</a>
</g>
</g>
<!-- Node2&#45;&gt;Node8 -->
<g id="edge7_Node000002_Node000008" class="edge">
<title>Node2&#45;&gt;Node8</title>
<g id="a_edge7_Node000002_Node000008"><a xlink:title=" ">
<path fill="none" stroke="#63b8ff" d="M136.56,-110.09C124.57,-102.21 106.93,-90.61 92.72,-81.27"/>
<polygon fill="#63b8ff" stroke="#63b8ff" points="94.65,-78.35 84.37,-75.78 90.81,-84.2 94.65,-78.35"/>
</a>
</g>
</g>
<!-- Node3&#45;&gt;Node4 -->
<g id="edge3_Node000003_Node000004" class="edge">
<title>Node3&#45;&gt;Node4</title>
<g id="a_edge3_Node000003_Node000004"><a xlink:title=" ">
<path fill="none" stroke="#63b8ff" d="M262.85,-54.84C238.61,-46.24 201.87,-33.19 174.56,-23.5"/>
<polygon fill="#63b8ff" stroke="#63b8ff" points="175.89,-20.26 165.3,-20.21 173.55,-26.85 175.89,-20.26"/>
</a>
</g>
</g>
<!-- Node5 -->
<g id="Node000005" class="node">
<title>Node5</title>
<g id="a_Node000005"><a xlink:title=" ">
<polygon fill="#e0e0e0" stroke="#999999" points="265.3,-19.25 225.3,-19.25 225.3,0 265.3,0 265.3,-19.25"/>
<text xml:space="preserve" text-anchor="middle" x="245.3" y="-5.75" font-family="Helvetica,sans-Serif" font-size="10.00">string</text>
</a>
</g>
</g>
<!-- Node3&#45;&gt;Node5 -->
<g id="edge4_Node000003_Node000005" class="edge">
<title>Node3&#45;&gt;Node5</title>
<g id="a_edge4_Node000003_Node000005"><a xlink:title=" ">
<path fill="none" stroke="#63b8ff" d="M281.2,-55.08C275.38,-47.88 266.97,-37.46 259.74,-28.51"/>
<polygon fill="#63b8ff" stroke="#63b8ff" points="262.51,-26.37 253.51,-20.79 257.07,-30.77 262.51,-26.37"/>
</a>
</g>
</g>
<!-- Node6 -->
<g id="Node000006" class="node">
<title>Node6</title>
<g id="a_Node000006"><a xlink:title=" ">
<polygon fill="#e0e0e0" stroke="#999999" points="497.8,-19.25 454.8,-19.25 454.8,0 497.8,0 497.8,-19.25"/>
<text xml:space="preserve" text-anchor="middle" x="476.3" y="-5.75" font-family="Helvetica,sans-Serif" font-size="10.00">vector</text>
</a>
</g>
</g>
<!-- Node3&#45;&gt;Node6 -->
<g id="edge5_Node000003_Node000006" class="edge">
<title>Node3&#45;&gt;Node6</title>
<g id="a_edge5_Node000003_Node000006"><a xlink:title=" ">
<path fill="none" stroke="#63b8ff" d="M320.19,-54.84C354.55,-45.11 408.93,-29.71 443.6,-19.89"/>
<polygon fill="#63b8ff" stroke="#63b8ff" points="444.42,-23.29 453.08,-17.2 442.51,-16.56 444.42,-23.29"/>
</a>
</g>
</g>
<!-- Node3&#45;&gt;Node7 -->
<g id="edge6_Node000003_Node000007" class="edge">
<title>Node3&#45;&gt;Node7</title>
<g id="a_edge6_Node000003_Node000007"><a xlink:title=" ">
<path fill="none" stroke="#63b8ff" d="M300.85,-54.84C311.76,-46.99 327.8,-35.45 340.76,-26.12"/>
<polygon fill="#63b8ff" stroke="#63b8ff" points="342.63,-29.09 348.7,-20.41 338.54,-23.41 342.63,-29.09"/>
</a>
</g>
</g>
<!-- Node10 -->
<g id="Node000010" class="node">
<title>Node10</title>
<g id="a_Node000010"><a xlink:href="_base_block_8hpp.html" target="_top" xlink:title=" ">
<polygon fill="white" stroke="#666666" points="290.3,-129.75 208.3,-129.75 208.3,-110.5 290.3,-110.5 290.3,-129.75"/>
<text xml:space="preserve" text-anchor="middle" x="249.3" y="-116.25" font-family="Helvetica,sans-Serif" font-size="10.00">BaseBlock.hpp</text>
</a>
</g>
</g>
<!-- Node9&#45;&gt;Node10 -->
<g id="edge11_Node000009_Node000010" class="edge">
<title>Node9&#45;&gt;Node10</title>
<g id="a_edge11_Node000009_Node000010"><a xlink:title=" ">
<path fill="none" stroke="#63b8ff" d="M256.81,-165.58C255.7,-158.99 254.13,-149.71 252.71,-141.32"/>
<polygon fill="#63b8ff" stroke="#63b8ff" points="256.19,-140.88 251.07,-131.6 249.29,-142.05 256.19,-140.88"/>
</a>
</g>
</g>
<!-- Node10&#45;&gt;Node3 -->
<g id="edge12_Node000010_Node000003" class="edge">
<title>Node10&#45;&gt;Node3</title>
<g id="a_edge12_Node000010_Node000003"><a xlink:title=" ">
<path fill="none" stroke="#63b8ff" d="M255.74,-110.33C260.96,-103.21 268.49,-92.93 274.99,-84.05"/>
<polygon fill="#63b8ff" stroke="#63b8ff" points="277.74,-86.22 280.83,-76.08 272.09,-82.08 277.74,-86.22"/>
</a>
</g>
</g>
<!-- Node10&#45;&gt;Node5 -->
<g id="edge13_Node000010_Node000005" class="edge">
<title>Node10&#45;&gt;Node5</title>
<g id="a_edge13_Node000010_Node000005"><a xlink:title=" ">
<path fill="none" stroke="#63b8ff" d="M245.04,-110.15C241.1,-101.31 235.53,-87.31 233.3,-74.5 230.72,-59.67 234.09,-42.96 237.9,-30.35"/>
<polygon fill="#63b8ff" stroke="#63b8ff" points="241.13,-31.74 241.03,-21.14 234.5,-29.48 241.13,-31.74"/>
</a>
</g>
</g>
<!-- Node11&#45;&gt;Node3 -->
<g id="edge15_Node000011_Node000003" class="edge">
<title>Node11&#45;&gt;Node3</title>
<g id="a_edge15_Node000011_Node000003"><a xlink:title=" ">
<path fill="none" stroke="#63b8ff" d="M490.63,-110.03C449.22,-100.99 385.59,-87.11 340.76,-77.32"/>
<polygon fill="#63b8ff" stroke="#63b8ff" points="341.79,-73.97 331.28,-75.25 340.3,-80.81 341.79,-73.97"/>
</a>
</g>
</g>
<!-- Node11&#45;&gt;Node6 -->
<g id="edge17_Node000011_Node000006" class="edge">
<title>Node11&#45;&gt;Node6</title>
<g id="a_edge17_Node000011_Node000006"><a xlink:title=" ">
<path fill="none" stroke="#63b8ff" d="M543.9,-110.33C558.82,-97.9 581.45,-74.56 569.3,-55.25 556.18,-34.4 530.32,-23.08 509.19,-17.06"/>
<polygon fill="#63b8ff" stroke="#63b8ff" points="510.07,-13.67 499.51,-14.6 508.35,-20.46 510.07,-13.67"/>
</a>
</g>
</g>
<!-- Node11&#45;&gt;Node7 -->
<g id="edge18_Node000011_Node000007" class="edge">
<title>Node11&#45;&gt;Node7</title>
<g id="a_edge18_Node000011_Node000007"><a xlink:title=" ">
<path fill="none" stroke="#63b8ff" d="M518.1,-110.06C488.9,-91.43 421.87,-48.65 385.99,-25.75"/>
<polygon fill="#63b8ff" stroke="#63b8ff" points="387.93,-22.83 377.62,-20.4 384.16,-28.73 387.93,-22.83"/>
</a>
</g>
</g>
<!-- Node12 -->
<g id="Node000012" class="node">
<title>Node12</title>
<g id="a_Node000012"><a xlink:title=" ">
<polygon fill="#e0e0e0" stroke="#999999" points="560.18,-74.5 504.43,-74.5 504.43,-55.25 560.18,-55.25 560.18,-74.5"/>
<text xml:space="preserve" text-anchor="middle" x="532.3" y="-61" font-family="Helvetica,sans-Serif" font-size="10.00">algorithm</text>
</a>
</g>
</g>
<!-- Node11&#45;&gt;Node12 -->
<g id="edge16_Node000011_Node000012" class="edge">
<title>Node11&#45;&gt;Node12</title>
<g id="a_edge16_Node000011_Node000012"><a xlink:title=" ">
<path fill="none" stroke="#63b8ff" d="M532.3,-110.33C532.3,-103.82 532.3,-94.67 532.3,-86.37"/>
<polygon fill="#63b8ff" stroke="#63b8ff" points="535.8,-86.37 532.3,-76.37 528.8,-86.37 535.8,-86.37"/>
</a>
</g>
</g>
<!-- Node13&#45;&gt;Node3 -->
<g id="edge20_Node000013_Node000003" class="edge">
<title>Node13&#45;&gt;Node3</title>
<g id="a_edge20_Node000013_Node000003"><a xlink:title=" ">
<path fill="none" stroke="#63b8ff" d="M399.57,-110.09C378.2,-101.6 345.96,-88.79 321.67,-79.14"/>
<polygon fill="#63b8ff" stroke="#63b8ff" points="323.14,-75.95 312.55,-75.51 320.55,-82.46 323.14,-75.95"/>
</a>
</g>
</g>
<!-- Node13&#45;&gt;Node6 -->
<g id="edge21_Node000013_Node000006" class="edge">
<title>Node13&#45;&gt;Node6</title>
<g id="a_edge21_Node000013_Node000006"><a xlink:title=" ">
<path fill="none" stroke="#63b8ff" d="M426.72,-110.25C435.42,-92.76 454.95,-53.52 466.74,-29.84"/>
<polygon fill="#63b8ff" stroke="#63b8ff" points="469.82,-31.49 471.15,-20.98 463.56,-28.37 469.82,-31.49"/>
</a>
</g>
</g>
<!-- Node13&#45;&gt;Node7 -->
<g id="edge22_Node000013_Node000007" class="edge">
<title>Node13&#45;&gt;Node7</title>
<g id="a_edge22_Node000013_Node000007"><a xlink:title=" ">
<path fill="none" stroke="#63b8ff" d="M417.39,-110.25C407.68,-92.68 385.82,-53.16 372.75,-29.52"/>
<polygon fill="#63b8ff" stroke="#63b8ff" points="375.91,-28.01 368.01,-20.95 369.79,-31.4 375.91,-28.01"/>
</a>
</g>
</g>
<!-- Node14&#45;&gt;Node3 -->
<g id="edge25_Node000014_Node000003" class="edge">
<title>Node14&#45;&gt;Node3</title>
<g id="a_edge25_Node000014_Node000003"><a xlink:title=" ">
<path fill="none" stroke="#63b8ff" d="M316.23,-220.61C313.78,-200.66 307.4,-151.33 299.3,-110.5 297.69,-102.38 295.58,-93.51 293.64,-85.84"/>
<polygon fill="#63b8ff" stroke="#63b8ff" points="297.03,-84.97 291.11,-76.18 290.25,-86.74 297.03,-84.97"/>
</a>
</g>
</g>
<!-- Node14&#45;&gt;Node7 -->
<g id="edge26_Node000014_Node000007" class="edge">
<title>Node14&#45;&gt;Node7</title>
<g id="a_edge26_Node000014_Node000007"><a xlink:title=" ">
<path fill="none" stroke="#63b8ff" d="M319.12,-220.77C325.76,-188.44 348.81,-76.28 358.23,-30.41"/>
<polygon fill="#63b8ff" stroke="#63b8ff" points="361.62,-31.33 360.2,-20.83 354.76,-29.92 361.62,-31.33"/>
</a>
</g>
</g>
<!-- Node14&#45;&gt;Node9 -->
<g id="edge24_Node000014_Node000009" class="edge">
<title>Node14&#45;&gt;Node9</title>
<g id="a_edge24_Node000014_Node000009"><a xlink:title=" ">
<path fill="none" stroke="#63b8ff" d="M307.29,-220.59C298.93,-213.05 286.8,-202.1 276.7,-192.98"/>
<polygon fill="#63b8ff" stroke="#63b8ff" points="279.05,-190.39 269.28,-186.29 274.36,-195.59 279.05,-190.39"/>
</a>
</g>
</g>
</g>
</svg>
