<?xml version="1.0" encoding="UTF-8" standalone="no"?>
<!DOCTYPE svg PUBLIC "-//W3C//DTD SVG 1.1//EN"
 "http://www.w3.org/Graphics/SVG/1.1/DTD/svg11.dtd">
<!-- Generated by graphviz version 13.1.2 (20250808.2320)
 -->
<!-- Title: main Pages: 1 -->
<svg width="362pt" height="137pt"
 viewBox="0.00 0.00 362.00 137.00" xmlns="http://www.w3.org/2000/svg" xmlns:xlink="http://www.w3.org/1999/xlink">

<svg id="main" version="1.1" xmlns="http://www.w3.org/2000/svg" xmlns:xlink="http://www.w3.org/1999/xlink" xml:space="preserve">

<style type="text/css"><![CDATA[
.node, .edge {opacity: 0.7;}
.node.selected, .edge.selected {opacity: 1;}
.edge:hover path { stroke: red; }
.edge:hover polygon { stroke: red; fill: red; }
]]></style>
<script type="application/ecmascript" xlink:href="svg.min.js"/>
<svg id="graph" class="graph">
<g id="graph0" class="graph" transform="scale(1 1) rotate(0) translate(4 132.5)">
<title>main</title>
<!-- Node1 -->
<g id="Node000001" class="node">
<title>Node1</title>
<g id="a_Node000001"><a xlink:title=" ">
<polygon fill="#999999" stroke="#666666" points="37,-73.88 0,-73.88 0,-54.62 37,-54.62 37,-73.88"/>
<text xml:space="preserve" text-anchor="middle" x="18.5" y="-60.38" font-family="Helvetica,sans-Serif" font-size="10.00">main</text>
</a>
</g>
</g>
<!-- Node2 -->
<g id="Node000002" class="node">
<title>Node2</title>
<g id="a_Node000002"><a xlink:href="classcom_1_1lab111_1_1labwork3_1_1_flow_chart.html#a4809890dcee84f90337d44b9b5d2d4b1" target="_top" xlink:title="Додає елемент блок&#45;схеми до колекції.">
<polygon fill="white" stroke="#666666" points="195.5,-128.5 82,-128.5 82,-98 195.5,-98 195.5,-128.5"/>
<text xml:space="preserve" text-anchor="start" x="90" y="-115" font-family="Helvetica,sans-Serif" font-size="10.00">com::lab111::labwork3</text>
<text xml:space="preserve" text-anchor="middle" x="138.75" y="-103.75" font-family="Helvetica,sans-Serif" font-size="10.00">::FlowChart::add</text>
</a>
</g>
</g>
<!-- Node1&#45;&gt;Node2 -->
<g id="edge1_Node000001_Node000002" class="edge">
<title>Node1&#45;&gt;Node2</title>
<g id="a_edge1_Node000001_Node000002"><a xlink:title=" ">
<path fill="none" stroke="#63b8ff" d="M37.23,-72.49C47.6,-77.23 60.97,-83.23 73,-88.25 77.08,-89.95 81.31,-91.67 85.58,-93.38"/>
<polygon fill="#63b8ff" stroke="#63b8ff" points="84.17,-96.59 94.76,-97.02 86.75,-90.08 84.17,-96.59"/>
</a>
</g>
</g>
<!-- Node3 -->
<g id="Node000003" class="node">
<title>Node3</title>
<g id="a_Node000003"><a xlink:href="classcom_1_1lab111_1_1labwork3_1_1_flow_chart.html#a28d62c9989bfcc069a95e01f4494d0bf" target="_top" xlink:title="Виводить інформацію про всі елементи в колекції.">
<polygon fill="white" stroke="#666666" points="195.5,-79.5 82,-79.5 82,-49 195.5,-49 195.5,-79.5"/>
<text xml:space="preserve" text-anchor="start" x="90" y="-66" font-family="Helvetica,sans-Serif" font-size="10.00">com::lab111::labwork3</text>
<text xml:space="preserve" text-anchor="middle" x="138.75" y="-54.75" font-family="Helvetica,sans-Serif" font-size="10.00">::FlowChart::printAll</text>
</a>
</g>
</g>
<!-- Node1&#45;&gt;Node3 -->
<g id="edge2_Node000001_Node000003" class="edge">
<title>Node1&#45;&gt;Node3</title>
<g id="a_edge2_Node000001_Node000003"><a xlink:title=" ">
<path fill="none" stroke="#63b8ff" d="M37.46,-64.25C46.56,-64.25 58.25,-64.25 70.41,-64.25"/>
<polygon fill="#63b8ff" stroke="#63b8ff" points="70.13,-67.75 80.13,-64.25 70.13,-60.75 70.13,-67.75"/>
</a>
</g>
</g>
<!-- Node4 -->
<g id="Node000004" class="node">
<title>Node4</title>
<g id="a_Node000004"><a xlink:href="classcom_1_1lab111_1_1labwork3_1_1_flow_chart.html#ac9290b6b4d15c691f7d0d37741bae32e" target="_top" xlink:title="Рекурсивно виводить структуру блок&#45;схеми, починаючи з кореневого елемента.">
<polygon fill="white" stroke="#666666" points="204.5,-30.5 73,-30.5 73,0 204.5,0 204.5,-30.5"/>
<text xml:space="preserve" text-anchor="start" x="81" y="-17" font-family="Helvetica,sans-Serif" font-size="10.00">com::lab111::labwork3</text>
<text xml:space="preserve" text-anchor="middle" x="138.75" y="-5.75" font-family="Helvetica,sans-Serif" font-size="10.00">::FlowChart::printStructure</text>
</a>
</g>
</g>
<!-- Node1&#45;&gt;Node4 -->
<g id="edge3_Node000001_Node000004" class="edge">
<title>Node1&#45;&gt;Node4</title>
<g id="a_edge3_Node000001_Node000004"><a xlink:title=" ">
<path fill="none" stroke="#63b8ff" d="M37.23,-56.01C47.6,-51.27 60.97,-45.27 73,-40.25 77.08,-38.55 81.31,-36.83 85.58,-35.12"/>
<polygon fill="#63b8ff" stroke="#63b8ff" points="86.75,-38.42 94.76,-31.48 84.17,-31.91 86.75,-38.42"/>
</a>
</g>
</g>
<!-- Node5 -->
<g id="Node000005" class="node">
<title>Node5</title>
<g id="a_Node000005"><a xlink:href="classcom_1_1lab111_1_1labwork3_1_1_flow_chart.html#a16e016e255beeb1f4a677dd776617534" target="_top" xlink:title="Отримує елемент блок&#45;схеми за його унікальним ідентифікатором.">
<polygon fill="white" stroke="#666666" points="354,-30.5 240.5,-30.5 240.5,0 354,0 354,-30.5"/>
<text xml:space="preserve" text-anchor="start" x="248.5" y="-17" font-family="Helvetica,sans-Serif" font-size="10.00">com::lab111::labwork3</text>
<text xml:space="preserve" text-anchor="middle" x="297.25" y="-5.75" font-family="Helvetica,sans-Serif" font-size="10.00">::FlowChart::get</text>
</a>
</g>
</g>
<!-- Node4&#45;&gt;Node5 -->
<g id="edge4_Node000004_Node000005" class="edge">
<title>Node4&#45;&gt;Node5</title>
<g id="a_edge4_Node000004_Node000005"><a xlink:title=" ">
<path fill="none" stroke="#63b8ff" d="M204.76,-15.25C212.66,-15.25 220.74,-15.25 228.68,-15.25"/>
<polygon fill="#63b8ff" stroke="#63b8ff" points="228.65,-18.75 238.65,-15.25 228.65,-11.75 228.65,-18.75"/>
</a>
</g>
</g>
</g>
</svg>
</svg>

<style type='text/css'>
<![CDATA[
[data-mouse-over-selected='false'] { opacity: 0.7; }
[data-mouse-over-selected='true']  { opacity: 1.0; }
]]>
</style>
<script type="application/ecmascript"><![CDATA[
document.addEventListener('DOMContentLoaded', (event) => {
  highlightEdges();
  highlightAdjacentNodes();
});
]]></script>
</svg>
